<svg width="100" height="100" viewBox="0 0 100 100" fill="none" xmlns="http://www.w3.org/2000/svg">
    <g clip-path="url(#a)">
        <path d="M6.925 67.376 0 52.526 45.615 0l6.924 14.851L6.925 67.376z" fill="#3DD9B2"/>
        <path d="m68.37 19.95-15.83-5.097L45.575.036 59.9 6.38l8.471 13.57z" fill="#19AA86"/>
        <path d="m54.382 99.999-15.873-5.044L84.13 42.44 100 47.484 54.382 99.999z" fill="#3DD9B2"/>
        <path d="m99.958 47.53-15.832-5.098-6.964-14.817 14.323 6.344 8.473 13.57z" fill="#19AA86"/>
        <path d="m31.58 80.104 6.923 14.85 45.62-52.514-6.924-14.85-20.197 23.25-8.793-7.684 20.2-23.253-15.872-5.044-45.62 52.515 15.872 5.044 15.754-18.132 8.792 7.682L31.58 80.104z" fill="#1C4B40"/>
        <path d="m51.966 38.858-4.816 5.52 8.776 7.696 4.816-5.52-8.776-7.697z" fill="#19AA86"/>
    </g>
    <defs>
        <clipPath id="a">
            <path fill="#fff" d="M0 0h100v100H0z"/>
        </clipPath>
    </defs>
</svg>
