<svg xmlns="http://www.w3.org/2000/svg" xmlns:xlink="http://www.w3.org/1999/xlink" viewBox="0 0 300 300" version="1.0">
    <defs>
        <linearGradient id="k">
            <stop style="stop-color:#a7a7a7" offset="0"/>
            <stop style="stop-color:#e9e9e9" offset="1"/>
        </linearGradient>
        <linearGradient id="a">
            <stop style="stop-color:#fff" offset="0"/>
            <stop style="stop-color:#fff;stop-opacity:0" offset="1"/>
        </linearGradient>
        <linearGradient id="n" y2="44.385" xlink:href="#a" gradientUnits="userSpaceOnUse" x2="58.824" y1="18.538" x1="40.463"/>
        <linearGradient id="p" y2="15.179" xlink:href="#a" gradientUnits="userSpaceOnUse" x2="83.678" y1="13.04" x1="77.608"/>
        <linearGradient id="o" y2="27.388" xlink:href="#b" gradientUnits="userSpaceOnUse" x2="86.639" y1="10.85" x1="79.854"/>
        <linearGradient id="N" y2="27.388" xlink:href="#c" gradientUnits="userSpaceOnUse" x2="86.639" y1="10.85" x1="79.854"/>
        <linearGradient id="K" y2="27.388" xlink:href="#d" gradientUnits="userSpaceOnUse" x2="86.639" y1="10.85" x1="79.854"/>
        <linearGradient id="H" y2="27.388" xlink:href="#e" gradientUnits="userSpaceOnUse" x2="86.639" y1="10.85" x1="79.854"/>
        <linearGradient id="E" y2="27.388" xlink:href="#f" gradientUnits="userSpaceOnUse" x2="86.639" y1="10.85" x1="79.854"/>
        <linearGradient id="B" y2="27.388" xlink:href="#g" gradientUnits="userSpaceOnUse" x2="86.639" y1="10.85" x1="79.854"/>
        <linearGradient id="y" y2="27.388" xlink:href="#h" gradientUnits="userSpaceOnUse" x2="86.639" y1="10.85" x1="79.854"/>
        <linearGradient id="v" y2="27.388" xlink:href="#i" gradientUnits="userSpaceOnUse" x2="86.639" y1="10.85" x1="79.854"/>
        <linearGradient id="s" y2="27.388" xlink:href="#j" gradientUnits="userSpaceOnUse" x2="86.639" y1="10.85" x1="79.854"/>
        <linearGradient id="e">
            <stop style="stop-color:#ff3c49" offset="0"/>
            <stop style="stop-color:#b4000c" offset="1"/>
        </linearGradient>
        <linearGradient id="b">
            <stop style="stop-color:#5c5cf1" offset="0"/>
            <stop style="stop-color:#1110b3" offset="1"/>
        </linearGradient>
        <linearGradient id="h">
            <stop style="stop-color:#a9a9a9" offset="0"/>
            <stop style="stop-color:#727272" offset="1"/>
        </linearGradient>
        <linearGradient id="j">
            <stop style="stop-color:#f3c250" offset="0"/>
            <stop style="stop-color:#bd880d" offset="1"/>
        </linearGradient>
        <linearGradient id="g">
            <stop style="stop-color:#46f146" offset="0"/>
            <stop style="stop-color:#0dab0d" offset="1"/>
        </linearGradient>
        <linearGradient id="d">
            <stop style="stop-color:#f0ec5e" offset="0"/>
            <stop style="stop-color:#c7c212" offset="1"/>
        </linearGradient>
        <linearGradient id="i">
            <stop style="stop-color:#da61dc" offset="0"/>
            <stop style="stop-color:#821e83" offset="1"/>
        </linearGradient>
        <linearGradient id="f">
            <stop style="stop-color:#ef4ca4" offset="0"/>
            <stop style="stop-color:#a20e5e" offset="1"/>
        </linearGradient>
        <linearGradient id="c">
            <stop style="stop-color:#37ede9" offset="0"/>
            <stop style="stop-color:#0fb0ac" offset="1"/>
        </linearGradient>
        <linearGradient id="l" y2="82.878" xlink:href="#k" gradientUnits="userSpaceOnUse" x2="22.759" y1="86.702" x1="26.583"/>
        <linearGradient id="w" y2="82.334" xlink:href="#k" gradientUnits="userSpaceOnUse" x2="23.911" y1="86.011" x1="28.45"/>
        <linearGradient id="F" y2="81.01" xlink:href="#k" gradientUnits="userSpaceOnUse" x2="24.94" y1="85.57" x1="30.195"/>
        <linearGradient id="I" y2="82.334" xlink:href="#k" gradientUnits="userSpaceOnUse" x2="24.205" y1="86.305" x1="28.45"/>
        <linearGradient id="z" y2="82.922" xlink:href="#k" gradientUnits="userSpaceOnUse" x2="23.764" y1="86.747" x1="28.45"/>
        <linearGradient id="q" y2="82.187" xlink:href="#k" gradientUnits="userSpaceOnUse" x2="24.058" y1="85.717" x1="28.45"/>
        <linearGradient id="t" y2="83.069" xlink:href="#k" gradientUnits="userSpaceOnUse" x2="23.617" y1="86.599" x1="27.694"/>
        <linearGradient id="C" y2="85.423" xlink:href="#k" gradientUnits="userSpaceOnUse" x2="22.146" y1="88.953" x1="26.224"/>
        <linearGradient id="L" y2="83.364" xlink:href="#k" gradientUnits="userSpaceOnUse" x2="22.587" y1="87.776" x1="26.959"/>
        <radialGradient id="m" xlink:href="#b" gradientUnits="userSpaceOnUse" cy="46.832" cx="47" gradientTransform="matrix(1.7663 -.07172 .06764 1.6656 -39.182 -27.633)" r="30.563"/>
        <radialGradient id="M" xlink:href="#c" gradientUnits="userSpaceOnUse" cy="46.832" cx="47" gradientTransform="matrix(1.7663 -.07172 .06764 1.6656 -39.182 -27.633)" r="30.563"/>
        <radialGradient id="J" xlink:href="#d" gradientUnits="userSpaceOnUse" cy="46.832" cx="47" gradientTransform="matrix(1.7663 -.07172 .06764 1.6656 -39.182 -27.633)" r="30.563"/>
        <radialGradient id="G" xlink:href="#e" gradientUnits="userSpaceOnUse" cy="46.832" cx="47" gradientTransform="matrix(1.7663 -.07172 .06764 1.6656 -39.182 -27.633)" r="30.563"/>
        <radialGradient id="D" xlink:href="#f" gradientUnits="userSpaceOnUse" cy="46.832" cx="47" gradientTransform="matrix(1.7663 -.07172 .06764 1.6656 -39.182 -27.633)" r="30.563"/>
        <radialGradient id="A" xlink:href="#g" gradientUnits="userSpaceOnUse" cy="46.832" cx="47" gradientTransform="matrix(1.7663 -.07172 .06764 1.6656 -39.182 -27.633)" r="30.563"/>
        <radialGradient id="x" xlink:href="#h" gradientUnits="userSpaceOnUse" cy="46.832" cx="47" gradientTransform="matrix(1.7663 -.07172 .06764 1.6656 -39.182 -27.633)" r="30.563"/>
        <radialGradient id="u" xlink:href="#i" gradientUnits="userSpaceOnUse" cy="46.832" cx="47" gradientTransform="matrix(1.7663 -.07172 .06764 1.6656 -39.182 -27.633)" r="30.563"/>
        <radialGradient id="r" xlink:href="#j" gradientUnits="userSpaceOnUse" cy="46.832" cx="47" gradientTransform="matrix(1.7663 -.07172 .06764 1.6656 -39.182 -27.633)" r="30.563"/>
    </defs>
    <path style="fill-rule:evenodd;fill:#000;fill-opacity:.37647" d="M-138.18-164.99s-3.23 7.25-4.18 9.41h-.04c-.36.03-.72.16-1.06.31-.29.1-.57.24-.84.41-8.45-4.88-19.54-5.85-29.94-.35-17.69 11.41-17.75 33.58-9.37 42.53 2.94 8.02-.81 9.86-5.63 10.47-.49.06-.87.16-1.09.28-.03.02-.08.05-.1.07-.07.05-.15.12-.18.18-.02.03-.03.07-.04.1v.03c0 .01-.03.05-.03.06 0 .03.03.07.03.09.01.02 0 .05 0 .07.01 0 .03.02.04.03 0 .01.02.05.03.06 0 .01.02.05.03.06.01.02.04.07.06.1.46.6 1.8 1.327 3.34 1.965l-18.12 22.844c-2.08 3.272 1.15 6.413 4.41 3.781 1.39-1.625 15.77-15.536 22.96-23.375l.16.469c.03.425-.06.912-.25 1.5-.32.983-.13 1.648.22 2.063.52.604 1.37.718 1.37.718s1.1-.922 1.1-4.312c0-.848.06-1.3.19-1.531 0-.014.02-.051.03-.063 0-.006.02-.026.03-.031 0-.005.02-.027.03-.031.01-.013.05-.021.06-.032.01-.003.03-.028.03-.031.01-.003.03.002.03 0 .02-.004.05-.028.07-.031.01-.003.05.002.06 0 .51-.073 1.38.26 2.62-1.344.06-.076.13-.152.19-.219 2.28-2.31 7.69 1.115 17.81.219 17.16-2.469 30.78-27.239 21.75-43.309-.55-1.27-1.22-2.47-1.96-3.63.12-.41.2-.85.25-1.12.03-.22-.03-.35-.16-.41 6.3-.71 10.15 1.48 12.25-.81-1.06-2.09-4.91-6.73-7.88-6.03-1.45.34-2.02-.7-2.37-2.13.01-.11 0-.23 0-.34l-.19-.53c-.23-1.31-.37-2.76-.81-3.72-1.06-2.32-4.91-4.44-4.91-4.44zm-4.84 10.84s.03.01.03 0v.07c-.01-.01-.02-.03-.03-.03.01-.01-.01-.03 0-.04zm7.91 7.29c-.01 0 0 .02 0 .03-.02.01-.05.02-.07.03l-.03.03-.03.03c-.02-.03-.04-.07-.06-.09.06-.01.12-.02.19-.03z" transform="translate(233 172)"/>
    <path style="fill-rule:evenodd;fill:#000;fill-opacity:.37647" d="M-139.01-165.16s-3.23 7.25-4.19 9.41h-.03c-.37.03-.73.17-1.06.31-.29.1-.58.24-.85.41-8.44-4.87-19.54-5.85-29.93-.35-17.69 11.41-17.75 33.59-9.38 42.54 2.95 8.01-.8 9.85-5.62 10.46-.49.07-.87.17-1.1.29a.47.47 0 0 0-.09.06c-.08.05-.15.12-.19.19-.01.02-.02.07-.03.09v.03c0 .01-.03.05-.03.06 0 .03.03.07.03.1v.06c0 .01.03.02.03.03.01.01.03.05.03.06.01.02.03.05.03.07.02.02.05.07.07.09.46.6 1.79 1.33 3.34 1.969l-18.12 22.843c-2.08 3.273 1.15 6.414 4.4 3.782 1.4-1.626 15.78-15.537 22.97-23.375l.16.468c.03.425-.06.913-.25 1.5-.32.983-.13 1.648.22 2.063.52.604 1.37.719 1.37.719s1.09-.922 1.09-4.313c0-.847.06-1.299.19-1.531.01-.014.02-.05.03-.063.01-.005.03-.026.03-.031.01-.005.03-.026.04-.031.01-.013.04-.021.06-.031 0-.003.02-.029.03-.032.01-.002.02.003.03 0 .01-.004.05-.027.06-.031.02-.003.05.002.07 0 .5-.073 1.38.26 2.62-1.344.06-.075.12-.152.19-.218 2.28-2.304 7.68 1.114 17.81.218 17.16-2.462 30.78-27.242 21.75-43.312-.55-1.27-1.23-2.46-1.97-3.63.13-.4.2-.84.25-1.12.04-.22-.03-.35-.15-.41 6.29-.71 10.15 1.49 12.25-.81-1.07-2.09-4.91-6.73-7.88-6.03-1.45.34-2.03-.7-2.37-2.13 0-.11-.01-.22 0-.34l-.19-.53c-.24-1.31-.37-2.75-.81-3.72-1.07-2.32-4.91-4.44-4.91-4.44zm-4.84 10.85c0-.01.02 0 .03 0-.01.01 0 .04 0 .06l-.03-.03c0-.01-.01-.03 0-.03zm7.9 7.28s.01.03 0 .03c-.01.01-.05.02-.06.03l-.03.03-.03.03a.705.705 0 0 1-.07-.09c.07-.01.13-.02.19-.03z" transform="translate(233 172)"/>
    <path style="fill-rule:evenodd;fill:url(#l)" d="M37.469 63.311 13.053 94.048c-2.077 3.272 1.163 6.412 4.417 3.785 1.865-2.168 26.823-26.179 27.027-28.511.204-2.333-5.191-6.859-7.028-6.011z" transform="translate(13 1)"/>
    <path style="fill-rule:evenodd;fill:url(#m)" d="M34.708 57.647c-8.371-8.949-8.31-31.131 9.381-42.536 16.887-8.94 35.65-.782 41.833 13.397 9.026 16.073-4.575 40.852-21.729 43.318-10.454.925-15.872-2.78-18.016-.006-2.145 2.774-3.16-.302-3.16 3.089 0 3.39-1.072 4.315-1.072 4.315s-2.413-.308-1.608-2.774c.804-2.466-.268-3.391-3.753-3.699s-12.33-4.007-7.505-4.624c4.825-.616 8.577-2.466 5.629-10.48z" transform="translate(13 1)"/>
    <path style="fill-rule:evenodd;fill:url(#n)" d="M33.749 51.659c-.084-38.362 47.536-21.758 36.555-34.547-14.591-9.343-45.677 4.846-36.555 34.547z" transform="translate(13 1)"/>
    <path style="fill-rule:evenodd;fill:#000;fill-opacity:.15" d="m16.286 98.324 24.057-24.235-3.812-1.585-20.245 25.82z" transform="translate(13 1)"/>
    <path style="fill-rule:evenodd;fill:url(#o)" d="m75.35 16.201 4.821-10.844s3.82 2.09 4.881 4.411c1.061 2.322.424 7.43 3.395 6.733 2.971-.696 6.791 3.947 7.852 6.037-2.334 2.554-6.825-.448-14.464 1.177-2.546.214-6.909-5.424-6.485-7.514z" transform="translate(13 1)"/>
    <path style="fill-rule:evenodd;fill:url(#p);fill-opacity:.75" d="M80.588 6.489c.718 2.154-.179 13.102-2.871 13.102-.718-1.256 2.333-10.948 2.871-13.102z" transform="translate(13 1)"/>
    <path style="fill-rule:evenodd;fill:#121266" d="M81.438 6.5s.371 1.655.5 3.219c.122 1.49.464 4.135-.25 5.187l.25-.094c1.292-1.399 1.39-3.507 1.25-5.218-.132-1.605-.348-2.212-.376-2.282L81.438 6.5zm4 5.719c-.166 5.45-4.218 9.532-6.75 9.781 3.197-.09 7.191-1.91 7.374-7.969l-.624-1.812zm-9.5 2.531c-.368.033-.728.167-1.063.312-.637.22-1.298.564-1.656 1.157-.356.642-.304 1.419-.063 2.093.233.748.854 2.492 1.125 2.844a.32.32 0 0 0 .031.032c.004.002.028.03.032.031.052.011.077.023.094.031.002.002.029-.001.031 0 .001-.003-.003-.028 0-.031a.453.453 0 0 1 .031-.031c.002-.004.029-.024.031-.032v-.031c.044-.438-.08-2.739-.25-3.375a2.154 2.154 0 0 1-.062-.531c.003-.044.022-.113.031-.157.008-.034.018-.091.031-.124.004-.009.028-.024.031-.032.062-.115.153-.233.25-.312.181-.14.414-.233.626-.313.385-.164 1.035-1.556.75-1.531zM92 18.844c-.498.012-1.109.056-1.812.125-.931.09-4.523.931-5.157 1.406l.594.25c.002-.002.028.002.031 0 .004-.002.028-.029.032-.031.559-.219 3.733-.291 4.593-.375 1.805-.176 3.938-.188 3.938-.188l-.875-1.156s-.515-.051-1.344-.031zm-8.973 4.88c-.034.215-.294 1.363-.496 1.526-.004.003-.027.029-.031.031s-.027-.002-.031 0-.027.03-.031.031h-.032c-.434.074-2.678.052-3.468-.062.002.003-.003.029 0 .031.01.011.022.05.031.063.004.006.028.024.031.031.002.004-.001.028 0 .031.002.008.03.023.031.032v.124c.005.003.026.029.031.032.354.161 2.025.499 2.782.625.544.064 1.152-.025 1.594-.375.448-.359.684-1.538.781-2.093.134-.767-1.138-.378-1.192-.027zm-4.246 1.464c.002.001-.002.029 0 .031.01.002.021-.002.031 0-.002-.002.003-.03 0-.031-.004-.003-.026.001-.031 0zm.094.031c.011.007.02.022.031.031-.02-.003-.013-.028-.031-.031zm-8.469 30.562c-2.159 8.218-8.492 10.754-14.031 11.407-5.539.652-11.124-.904-13.094-1.532l-.343-.125-.282.25c-1.282 1.165-2.895 2.735-4.625 3.907-1.73 1.171-3.509 1.895-5.156 1.562l1 .875c2.154.435 3.015-.148 4.875-1.406 1.76-1.192 3.087-3.377 4.312-4.5 2.202.688 7.763 2.887 13.438 2.219 5.864-.691 11.943-3.869 14.219-12.532l-.313-.125zm-31.312 8.063c-.375.031-.85.112-1.406.25-.514.127-.764.171-.969.25-.034.014-.092.045-.125.062-.29.155-.647.469-1.75 1.313l-1.969 2c1.869-1.355 3.934-2.12 5.094-2.407 1.217-.3 1.906-1.156 1.906-1.156l.094-.312s-.327-.046-.875 0zm4.468 4.344a3.985 3.985 0 0 0-2.062 1.031c-1.003.948-1.785 1.302-1.344 4.375l.625 1.906c-.172-2.565.924-4.771 1.563-5.375.687-.65 1.406-1.75 1.406-1.75l-.062-.187c-.018.001-.076-.008-.126 0z" transform="translate(13 1)"/>
    <path style="fill-rule:evenodd;fill:#000;fill-opacity:.37647" d="M-138.18-164.99s-3.23 7.25-4.18 9.41h-.04c-.36.03-.72.16-1.06.31-.29.1-.57.24-.84.41-8.45-4.88-19.54-5.85-29.94-.35-17.69 11.41-17.75 33.58-9.37 42.53 2.94 8.02-.81 9.86-5.63 10.47-.49.06-.87.16-1.09.28-.03.02-.08.05-.1.07-.07.05-.15.12-.18.18-.02.03-.03.07-.04.1v.03c0 .01-.03.05-.03.06 0 .03.03.07.03.09.01.02 0 .05 0 .07.01 0 .03.02.04.03 0 .01.02.05.03.06 0 .01.02.05.03.06.01.02.04.07.06.1.46.6 1.8 1.327 3.34 1.965l-18.12 22.844c-2.08 3.272 1.15 6.413 4.41 3.781 1.39-1.625 15.77-15.536 22.96-23.375l.16.469c.03.425-.06.912-.25 1.5-.32.983-.13 1.648.22 2.063.52.604 1.37.718 1.37.718s1.1-.922 1.1-4.312c0-.848.06-1.3.19-1.531 0-.014.02-.051.03-.063 0-.006.02-.026.03-.031 0-.005.02-.027.03-.031.01-.013.05-.021.06-.032.01-.003.03-.028.03-.031.01-.003.03.002.03 0 .02-.004.05-.028.07-.031.01-.003.05.002.06 0 .51-.073 1.38.26 2.62-1.344.06-.076.13-.152.19-.219 2.28-2.31 7.69 1.115 17.81.219 17.16-2.469 30.78-27.239 21.75-43.309-.55-1.27-1.22-2.47-1.96-3.63.12-.41.2-.85.25-1.12.03-.22-.03-.35-.16-.41 6.3-.71 10.15 1.48 12.25-.81-1.06-2.09-4.91-6.73-7.88-6.03-1.45.34-2.02-.7-2.37-2.13.01-.11 0-.23 0-.34l-.19-.53c-.23-1.31-.37-2.76-.81-3.72-1.06-2.32-4.91-4.44-4.91-4.44zm-4.84 10.84s.03.01.03 0v.07c-.01-.01-.02-.03-.03-.03.01-.01-.01-.03 0-.04zm7.91 7.29c-.01 0 0 .02 0 .03-.02.01-.05.02-.07.03l-.03.03-.03.03c-.02-.03-.04-.07-.06-.09.06-.01.12-.02.19-.03z" transform="translate(234 267.55)"/>
    <path style="fill-rule:evenodd;fill:#000;fill-opacity:.37647" d="M-139.01-165.16s-3.23 7.25-4.19 9.41h-.03c-.37.03-.73.17-1.06.31-.29.1-.58.24-.85.41-8.44-4.87-19.54-5.85-29.93-.35-17.69 11.41-17.75 33.59-9.38 42.54 2.95 8.01-.8 9.85-5.62 10.46-.49.07-.87.17-1.1.29a.47.47 0 0 0-.09.06c-.08.05-.15.12-.19.19-.01.02-.02.07-.03.09v.03c0 .01-.03.05-.03.06 0 .03.03.07.03.1v.06c0 .01.03.02.03.03.01.01.03.05.03.06.01.02.03.05.03.07.02.02.05.07.07.09.46.6 1.79 1.33 3.34 1.969l-18.12 22.843c-2.08 3.273 1.15 6.414 4.4 3.782 1.4-1.626 15.78-15.537 22.97-23.375l.16.468c.03.425-.06.913-.25 1.5-.32.983-.13 1.648.22 2.063.52.604 1.37.719 1.37.719s1.09-.922 1.09-4.313c0-.847.06-1.299.19-1.531.01-.014.02-.05.03-.063.01-.005.03-.026.03-.031.01-.005.03-.026.04-.031.01-.013.04-.021.06-.031 0-.003.02-.029.03-.032.01-.002.02.003.03 0 .01-.004.05-.027.06-.031.02-.003.05.002.07 0 .5-.073 1.38.26 2.62-1.344.06-.075.12-.152.19-.218 2.28-2.304 7.68 1.114 17.81.218 17.16-2.462 30.78-27.242 21.75-43.312-.55-1.27-1.23-2.46-1.97-3.63.13-.4.2-.84.25-1.12.04-.22-.03-.35-.15-.41 6.29-.71 10.15 1.49 12.25-.81-1.07-2.09-4.91-6.73-7.88-6.03-1.45.34-2.03-.7-2.37-2.13 0-.11-.01-.22 0-.34l-.19-.53c-.24-1.31-.37-2.75-.81-3.72-1.07-2.32-4.91-4.44-4.91-4.44zm-4.84 10.85c0-.01.02 0 .03 0-.01.01 0 .04 0 .06l-.03-.03c0-.01-.01-.03 0-.03zm7.9 7.28s.01.03 0 .03c-.01.01-.05.02-.06.03l-.03.03-.03.03a.705.705 0 0 1-.07-.09c.07-.01.13-.02.19-.03z" transform="translate(234 267.55)"/>
    <path style="fill-rule:evenodd;fill:url(#q)" d="M37.469 63.311 13.053 94.048c-2.077 3.272 1.163 6.412 4.417 3.785 1.865-2.168 26.823-26.179 27.027-28.511.204-2.333-5.191-6.859-7.028-6.011z" transform="translate(14 96.55)"/>
    <path style="fill-rule:evenodd;fill:url(#r)" d="M34.708 57.647c-8.371-8.949-8.31-31.131 9.381-42.536 16.887-8.94 35.65-.782 41.833 13.397 9.026 16.073-4.575 40.852-21.729 43.318-10.454.925-15.872-2.78-18.016-.006-2.145 2.774-3.16-.302-3.16 3.089 0 3.39-1.072 4.315-1.072 4.315s-2.413-.308-1.608-2.774c.804-2.466-.268-3.391-3.753-3.699s-12.33-4.007-7.505-4.624c4.825-.616 8.577-2.466 5.629-10.48z" transform="translate(14 96.55)"/>
    <path style="fill:url(#n);fill-rule:evenodd" d="M33.749 51.659c-.084-38.362 47.536-21.758 36.555-34.547-14.591-9.343-45.677 4.846-36.555 34.547z" transform="translate(14 96.55)"/>
    <path style="fill-rule:evenodd;fill:#000;fill-opacity:.15" d="m16.286 98.324 24.057-24.235-3.812-1.585-20.245 25.82z" transform="translate(14 96.55)"/>
    <path style="fill-rule:evenodd;fill:url(#s)" d="m75.35 16.201 4.821-10.844s3.82 2.09 4.881 4.411c1.061 2.322.424 7.43 3.395 6.733 2.971-.696 6.791 3.947 7.852 6.037-2.334 2.554-6.825-.448-14.464 1.177-2.546.214-6.909-5.424-6.485-7.514z" transform="translate(14 96.55)"/>
    <path style="fill-opacity:.75;fill:url(#p);fill-rule:evenodd" d="M80.588 6.489c.718 2.154-.179 13.102-2.871 13.102-.718-1.256 2.333-10.948 2.871-13.102z" transform="translate(14 96.55)"/>
    <path style="fill-rule:evenodd;fill:#936d13" d="M81.438 6.5s.371 1.655.5 3.219c.122 1.49.464 4.135-.25 5.187l.25-.094c1.292-1.399 1.39-3.507 1.25-5.218-.132-1.605-.348-2.212-.376-2.282L81.438 6.5zm4 5.719c-.166 5.45-4.218 9.532-6.75 9.781 3.197-.09 7.191-1.91 7.374-7.969l-.624-1.812zm-9.5 2.531c-.368.033-.728.167-1.063.312-.637.22-1.298.564-1.656 1.157-.356.642-.304 1.419-.063 2.093.233.748.854 2.492 1.125 2.844a.32.32 0 0 0 .031.032c.004.002.028.03.032.031.052.011.077.023.094.031.002.002.029-.001.031 0 .001-.003-.003-.028 0-.031a.453.453 0 0 1 .031-.031c.002-.004.029-.024.031-.032v-.031c.044-.438-.08-2.739-.25-3.375a2.154 2.154 0 0 1-.062-.531c.003-.044.022-.113.031-.157.008-.034.018-.091.031-.124.004-.009.028-.024.031-.032.062-.115.153-.233.25-.312.181-.14.414-.233.626-.313.385-.164 1.035-1.556.75-1.531zM92 18.844c-.498.012-1.109.056-1.812.125-.931.09-4.523.931-5.157 1.406l.594.25c.002-.002.028.002.031 0 .004-.002.028-.029.032-.031.559-.219 3.733-.291 4.593-.375 1.805-.176 3.938-.188 3.938-.188l-.875-1.156s-.515-.051-1.344-.031zm-8.973 4.88c-.034.215-.294 1.363-.496 1.526-.004.003-.027.029-.031.031s-.027-.002-.031 0-.027.03-.031.031h-.032c-.434.074-2.678.052-3.468-.062.002.003-.003.029 0 .031.01.011.022.05.031.063.004.006.028.024.031.031.002.004-.001.028 0 .031.002.008.03.023.031.032v.124c.005.003.026.029.031.032.354.161 2.025.499 2.782.625.544.064 1.152-.025 1.594-.375.448-.359.684-1.538.781-2.093.134-.767-1.138-.378-1.192-.027zm-4.246 1.464c.002.001-.002.029 0 .031.01.002.021-.002.031 0-.002-.002.003-.03 0-.031-.004-.003-.026.001-.031 0zm.094.031c.011.007.02.022.031.031-.02-.003-.013-.028-.031-.031zm-8.469 30.562c-2.159 8.218-8.492 10.754-14.031 11.407-5.539.652-11.124-.904-13.094-1.532l-.343-.125-.282.25c-1.282 1.165-2.895 2.735-4.625 3.907-1.73 1.171-3.509 1.895-5.156 1.562l1 .875c2.154.435 3.015-.148 4.875-1.406 1.76-1.192 3.087-3.377 4.312-4.5 2.202.688 7.763 2.887 13.438 2.219 5.864-.691 11.943-3.869 14.219-12.532l-.313-.125zm-31.312 8.063c-.375.031-.85.112-1.406.25-.514.127-.764.171-.969.25-.034.014-.092.045-.125.062-.29.155-.647.469-1.75 1.313l-1.969 2c1.869-1.355 3.934-2.12 5.094-2.407 1.217-.3 1.906-1.156 1.906-1.156l.094-.312s-.327-.046-.875 0zm4.468 4.344a3.985 3.985 0 0 0-2.062 1.031c-1.003.948-1.785 1.302-1.344 4.375l.625 1.906c-.172-2.565.924-4.771 1.563-5.375.687-.65 1.406-1.75 1.406-1.75l-.062-.187c-.018.001-.076-.008-.126 0z" transform="translate(14 96.55)"/>
    <path style="fill-rule:evenodd;fill:#000;fill-opacity:.37647" d="M-138.18-164.99s-3.23 7.25-4.18 9.41h-.04c-.36.03-.72.16-1.06.31-.29.1-.57.24-.84.41-8.45-4.88-19.54-5.85-29.94-.35-17.69 11.41-17.75 33.58-9.37 42.53 2.94 8.02-.81 9.86-5.63 10.47-.49.06-.87.16-1.09.28-.03.02-.08.05-.1.07-.07.05-.15.12-.18.18-.02.03-.03.07-.04.1v.03c0 .01-.03.05-.03.06 0 .03.03.07.03.09.01.02 0 .05 0 .07.01 0 .03.02.04.03 0 .01.02.05.03.06 0 .01.02.05.03.06.01.02.04.07.06.1.46.6 1.8 1.327 3.34 1.965l-18.12 22.844c-2.08 3.272 1.15 6.413 4.41 3.781 1.39-1.625 15.77-15.536 22.96-23.375l.16.469c.03.425-.06.912-.25 1.5-.32.983-.13 1.648.22 2.063.52.604 1.37.718 1.37.718s1.1-.922 1.1-4.312c0-.848.06-1.3.19-1.531 0-.014.02-.051.03-.063 0-.006.02-.026.03-.031 0-.005.02-.027.03-.031.01-.013.05-.021.06-.032.01-.003.03-.028.03-.031.01-.003.03.002.03 0 .02-.004.05-.028.07-.031.01-.003.05.002.06 0 .51-.073 1.38.26 2.62-1.344.06-.076.13-.152.19-.219 2.28-2.31 7.69 1.115 17.81.219 17.16-2.469 30.78-27.239 21.75-43.309-.55-1.27-1.22-2.47-1.96-3.63.12-.41.2-.85.25-1.12.03-.22-.03-.35-.16-.41 6.3-.71 10.15 1.48 12.25-.81-1.06-2.09-4.91-6.73-7.88-6.03-1.45.34-2.02-.7-2.37-2.13.01-.11 0-.23 0-.34l-.19-.53c-.23-1.31-.37-2.76-.81-3.72-1.06-2.32-4.91-4.44-4.91-4.44zm-4.84 10.84s.03.01.03 0v.07c-.01-.01-.02-.03-.03-.03.01-.01-.01-.03 0-.04zm7.91 7.29c-.01 0 0 .02 0 .03-.02.01-.05.02-.07.03l-.03.03-.03.03c-.02-.03-.04-.07-.06-.09.06-.01.12-.02.19-.03z" transform="translate(234 365.1)"/>
    <path style="fill-rule:evenodd;fill:#000;fill-opacity:.37647" d="M-139.01-165.16s-3.23 7.25-4.19 9.41h-.03c-.37.03-.73.17-1.06.31-.29.1-.58.24-.85.41-8.44-4.87-19.54-5.85-29.93-.35-17.69 11.41-17.75 33.59-9.38 42.54 2.95 8.01-.8 9.85-5.62 10.46-.49.07-.87.17-1.1.29a.47.47 0 0 0-.09.06c-.08.05-.15.12-.19.19-.01.02-.02.07-.03.09v.03c0 .01-.03.05-.03.06 0 .03.03.07.03.1v.06c0 .01.03.02.03.03.01.01.03.05.03.06.01.02.03.05.03.07.02.02.05.07.07.09.46.6 1.79 1.33 3.34 1.969l-18.12 22.843c-2.08 3.273 1.15 6.414 4.4 3.782 1.4-1.626 15.78-15.537 22.97-23.375l.16.468c.03.425-.06.913-.25 1.5-.32.983-.13 1.648.22 2.063.52.604 1.37.719 1.37.719s1.09-.922 1.09-4.313c0-.847.06-1.299.19-1.531.01-.014.02-.05.03-.063.01-.005.03-.026.03-.031.01-.005.03-.026.04-.031.01-.013.04-.021.06-.031 0-.003.02-.029.03-.032.01-.002.02.003.03 0 .01-.004.05-.027.06-.031.02-.003.05.002.07 0 .5-.073 1.38.26 2.62-1.344.06-.075.12-.152.19-.218 2.28-2.304 7.68 1.114 17.81.218 17.16-2.462 30.78-27.242 21.75-43.312-.55-1.27-1.23-2.46-1.97-3.63.13-.4.2-.84.25-1.12.04-.22-.03-.35-.15-.41 6.29-.71 10.15 1.49 12.25-.81-1.07-2.09-4.91-6.73-7.88-6.03-1.45.34-2.03-.7-2.37-2.13 0-.11-.01-.22 0-.34l-.19-.53c-.24-1.31-.37-2.75-.81-3.72-1.07-2.32-4.91-4.44-4.91-4.44zm-4.84 10.85c0-.01.02 0 .03 0-.01.01 0 .04 0 .06l-.03-.03c0-.01-.01-.03 0-.03zm7.9 7.28s.01.03 0 .03c-.01.01-.05.02-.06.03l-.03.03-.03.03a.705.705 0 0 1-.07-.09c.07-.01.13-.02.19-.03z" transform="translate(234 365.1)"/>
    <path style="fill-rule:evenodd;fill:url(#t)" d="M37.469 63.311 13.053 94.048c-2.077 3.272 1.163 6.412 4.417 3.785 1.865-2.168 26.823-26.179 27.027-28.511.204-2.333-5.191-6.859-7.028-6.011z" transform="translate(14 194.1)"/>
    <path style="fill-rule:evenodd;fill:url(#u)" d="M34.708 57.647c-8.371-8.949-8.31-31.131 9.381-42.536 16.887-8.94 35.65-.782 41.833 13.397 9.026 16.073-4.575 40.852-21.729 43.318-10.454.925-15.872-2.78-18.016-.006-2.145 2.774-3.16-.302-3.16 3.089 0 3.39-1.072 4.315-1.072 4.315s-2.413-.308-1.608-2.774c.804-2.466-.268-3.391-3.753-3.699s-12.33-4.007-7.505-4.624c4.825-.616 8.577-2.466 5.629-10.48z" transform="translate(14 194.1)"/>
    <path style="fill:url(#n);fill-rule:evenodd" d="M33.749 51.659c-.084-38.362 47.536-21.758 36.555-34.547-14.591-9.343-45.677 4.846-36.555 34.547z" transform="translate(14 194.1)"/>
    <path style="fill-rule:evenodd;fill:#000;fill-opacity:.15" d="m16.286 98.324 24.057-24.235-3.812-1.585-20.245 25.82z" transform="translate(14 194.1)"/>
    <path style="fill-rule:evenodd;fill:url(#v)" d="m75.35 16.201 4.821-10.844s3.82 2.09 4.881 4.411c1.061 2.322.424 7.43 3.395 6.733 2.971-.696 6.791 3.947 7.852 6.037-2.334 2.554-6.825-.448-14.464 1.177-2.546.214-6.909-5.424-6.485-7.514z" transform="translate(14 194.1)"/>
    <path style="fill-opacity:.75;fill:url(#p);fill-rule:evenodd" d="M80.588 6.489c.718 2.154-.179 13.102-2.871 13.102-.718-1.256 2.333-10.948 2.871-13.102z" transform="translate(14 194.1)"/>
    <path style="fill-rule:evenodd;fill:#5d155e" d="M81.438 6.5s.371 1.655.5 3.219c.122 1.49.464 4.135-.25 5.187l.25-.094c1.292-1.399 1.39-3.507 1.25-5.218-.132-1.605-.348-2.212-.376-2.282L81.438 6.5zm4 5.719c-.166 5.45-4.218 9.532-6.75 9.781 3.197-.09 7.191-1.91 7.374-7.969l-.624-1.812zm-9.5 2.531c-.368.033-.728.167-1.063.312-.637.22-1.298.564-1.656 1.157-.356.642-.304 1.419-.063 2.093.233.748.854 2.492 1.125 2.844a.32.32 0 0 0 .031.032c.004.002.028.03.032.031.052.011.077.023.094.031.002.002.029-.001.031 0 .001-.003-.003-.028 0-.031a.453.453 0 0 1 .031-.031c.002-.004.029-.024.031-.032v-.031c.044-.438-.08-2.739-.25-3.375a2.154 2.154 0 0 1-.062-.531c.003-.044.022-.113.031-.157.008-.034.018-.091.031-.124.004-.009.028-.024.031-.032.062-.115.153-.233.25-.312.181-.14.414-.233.626-.313.385-.164 1.035-1.556.75-1.531zM92 18.844c-.498.012-1.109.056-1.812.125-.931.09-4.523.931-5.157 1.406l.594.25c.002-.002.028.002.031 0 .004-.002.028-.029.032-.031.559-.219 3.733-.291 4.593-.375 1.805-.176 3.938-.188 3.938-.188l-.875-1.156s-.515-.051-1.344-.031zm-8.973 4.88c-.034.215-.294 1.363-.496 1.526-.004.003-.027.029-.031.031s-.027-.002-.031 0-.027.03-.031.031h-.032c-.434.074-2.678.052-3.468-.062.002.003-.003.029 0 .031.01.011.022.05.031.063.004.006.028.024.031.031.002.004-.001.028 0 .031.002.008.03.023.031.032v.124c.005.003.026.029.031.032.354.161 2.025.499 2.782.625.544.064 1.152-.025 1.594-.375.448-.359.684-1.538.781-2.093.134-.767-1.138-.378-1.192-.027zm-4.246 1.464c.002.001-.002.029 0 .031.01.002.021-.002.031 0-.002-.002.003-.03 0-.031-.004-.003-.026.001-.031 0zm.094.031c.011.007.02.022.031.031-.02-.003-.013-.028-.031-.031zm-8.469 30.562c-2.159 8.218-8.492 10.754-14.031 11.407-5.539.652-11.124-.904-13.094-1.532l-.343-.125-.282.25c-1.282 1.165-2.895 2.735-4.625 3.907-1.73 1.171-3.509 1.895-5.156 1.562l1 .875c2.154.435 3.015-.148 4.875-1.406 1.76-1.192 3.087-3.377 4.312-4.5 2.202.688 7.763 2.887 13.438 2.219 5.864-.691 11.943-3.869 14.219-12.532l-.313-.125zm-31.312 8.063c-.375.031-.85.112-1.406.25-.514.127-.764.171-.969.25-.034.014-.092.045-.125.062-.29.155-.647.469-1.75 1.313l-1.969 2c1.869-1.355 3.934-2.12 5.094-2.407 1.217-.3 1.906-1.156 1.906-1.156l.094-.312s-.327-.046-.875 0zm4.468 4.344a3.985 3.985 0 0 0-2.062 1.031c-1.003.948-1.785 1.302-1.344 4.375l.625 1.906c-.172-2.565.924-4.771 1.563-5.375.687-.65 1.406-1.75 1.406-1.75l-.062-.187c-.018.001-.076-.008-.126 0z" transform="translate(14 194.1)"/>
    <path style="fill-rule:evenodd;fill:#000;fill-opacity:.37647" d="M-138.18-164.99s-3.23 7.25-4.18 9.41h-.04c-.36.03-.72.16-1.06.31-.29.1-.57.24-.84.41-8.45-4.88-19.54-5.85-29.94-.35-17.69 11.41-17.75 33.58-9.37 42.53 2.94 8.02-.81 9.86-5.63 10.47-.49.06-.87.16-1.09.28-.03.02-.08.05-.1.07-.07.05-.15.12-.18.18-.02.03-.03.07-.04.1v.03c0 .01-.03.05-.03.06 0 .03.03.07.03.09.01.02 0 .05 0 .07.01 0 .03.02.04.03 0 .01.02.05.03.06 0 .01.02.05.03.06.01.02.04.07.06.1.46.6 1.8 1.327 3.34 1.965l-18.12 22.844c-2.08 3.272 1.15 6.413 4.41 3.781 1.39-1.625 15.77-15.536 22.96-23.375l.16.469c.03.425-.06.912-.25 1.5-.32.983-.13 1.648.22 2.063.52.604 1.37.718 1.37.718s1.1-.922 1.1-4.312c0-.848.06-1.3.19-1.531 0-.014.02-.051.03-.063 0-.006.02-.026.03-.031 0-.005.02-.027.03-.031.01-.013.05-.021.06-.032.01-.003.03-.028.03-.031.01-.003.03.002.03 0 .02-.004.05-.028.07-.031.01-.003.05.002.06 0 .51-.073 1.38.26 2.62-1.344.06-.076.13-.152.19-.219 2.28-2.31 7.69 1.115 17.81.219 17.16-2.469 30.78-27.239 21.75-43.309-.55-1.27-1.22-2.47-1.96-3.63.12-.41.2-.85.25-1.12.03-.22-.03-.35-.16-.41 6.3-.71 10.15 1.48 12.25-.81-1.06-2.09-4.91-6.73-7.88-6.03-1.45.34-2.02-.7-2.37-2.13.01-.11 0-.23 0-.34l-.19-.53c-.23-1.31-.37-2.76-.81-3.72-1.06-2.32-4.91-4.44-4.91-4.44zm-4.84 10.84s.03.01.03 0v.07c-.01-.01-.02-.03-.03-.03.01-.01-.01-.03 0-.04zm7.91 7.29c-.01 0 0 .02 0 .03-.02.01-.05.02-.07.03l-.03.03-.03.03c-.02-.03-.04-.07-.06-.09.06-.01.12-.02.19-.03z" transform="translate(316.14 171)"/>
    <path style="fill-rule:evenodd;fill:#000;fill-opacity:.37647" d="M-139.01-165.16s-3.23 7.25-4.19 9.41h-.03c-.37.03-.73.17-1.06.31-.29.1-.58.24-.85.41-8.44-4.87-19.54-5.85-29.93-.35-17.69 11.41-17.75 33.59-9.38 42.54 2.95 8.01-.8 9.85-5.62 10.46-.49.07-.87.17-1.1.29a.47.47 0 0 0-.09.06c-.08.05-.15.12-.19.19-.01.02-.02.07-.03.09v.03c0 .01-.03.05-.03.06 0 .03.03.07.03.1v.06c0 .01.03.02.03.03.01.01.03.05.03.06.01.02.03.05.03.07.02.02.05.07.07.09.46.6 1.79 1.33 3.34 1.969l-18.12 22.843c-2.08 3.273 1.15 6.414 4.4 3.782 1.4-1.626 15.78-15.537 22.97-23.375l.16.468c.03.425-.06.913-.25 1.5-.32.983-.13 1.648.22 2.063.52.604 1.37.719 1.37.719s1.09-.922 1.09-4.313c0-.847.06-1.299.19-1.531.01-.014.02-.05.03-.063.01-.005.03-.026.03-.031.01-.005.03-.026.04-.031.01-.013.04-.021.06-.031 0-.003.02-.029.03-.032.01-.002.02.003.03 0 .01-.004.05-.027.06-.031.02-.003.05.002.07 0 .5-.073 1.38.26 2.62-1.344.06-.075.12-.152.19-.218 2.28-2.304 7.68 1.114 17.81.218 17.16-2.462 30.78-27.242 21.75-43.312-.55-1.27-1.23-2.46-1.97-3.63.13-.4.2-.84.25-1.12.04-.22-.03-.35-.15-.41 6.29-.71 10.15 1.49 12.25-.81-1.07-2.09-4.91-6.73-7.88-6.03-1.45.34-2.03-.7-2.37-2.13 0-.11-.01-.22 0-.34l-.19-.53c-.24-1.31-.37-2.75-.81-3.72-1.07-2.32-4.91-4.44-4.91-4.44zm-4.84 10.85c0-.01.02 0 .03 0-.01.01 0 .04 0 .06l-.03-.03c0-.01-.01-.03 0-.03zm7.9 7.28s.01.03 0 .03c-.01.01-.05.02-.06.03l-.03.03-.03.03a.705.705 0 0 1-.07-.09c.07-.01.13-.02.19-.03z" transform="translate(316.14 171)"/>
    <path style="fill-rule:evenodd;fill:url(#w)" d="M37.469 63.311 13.053 94.048c-2.077 3.272 1.163 6.412 4.417 3.785 1.865-2.168 26.823-26.179 27.027-28.511.204-2.333-5.191-6.859-7.028-6.011z" transform="translate(96.14)"/>
    <path style="fill-rule:evenodd;fill:url(#x)" d="M34.708 57.647c-8.371-8.949-8.31-31.131 9.381-42.536 16.887-8.94 35.65-.782 41.833 13.397 9.026 16.073-4.575 40.852-21.729 43.318-10.454.925-15.872-2.78-18.016-.006-2.145 2.774-3.16-.302-3.16 3.089 0 3.39-1.072 4.315-1.072 4.315s-2.413-.308-1.608-2.774c.804-2.466-.268-3.391-3.753-3.699s-12.33-4.007-7.505-4.624c4.825-.616 8.577-2.466 5.629-10.48z" transform="translate(96.14)"/>
    <path style="fill:url(#n);fill-rule:evenodd" d="M33.749 51.659c-.084-38.362 47.536-21.758 36.555-34.547-14.591-9.343-45.677 4.846-36.555 34.547z" transform="translate(96.14)"/>
    <path style="fill-rule:evenodd;fill:#000;fill-opacity:.15" d="m16.286 98.324 24.057-24.235-3.812-1.585-20.245 25.82z" transform="translate(96.14)"/>
    <path style="fill-rule:evenodd;fill:url(#y)" d="m75.35 16.201 4.821-10.844s3.82 2.09 4.881 4.411c1.061 2.322.424 7.43 3.395 6.733 2.971-.696 6.791 3.947 7.852 6.037-2.334 2.554-6.825-.448-14.464 1.177-2.546.214-6.909-5.424-6.485-7.514z" transform="translate(96.14)"/>
    <path style="fill-opacity:.75;fill:url(#p);fill-rule:evenodd" d="M80.588 6.489c.718 2.154-.179 13.102-2.871 13.102-.718-1.256 2.333-10.948 2.871-13.102z" transform="translate(96.14)"/>
    <path style="fill-rule:evenodd;fill:#555" d="M81.438 6.5s.371 1.655.5 3.219c.122 1.49.464 4.135-.25 5.187l.25-.094c1.292-1.399 1.39-3.507 1.25-5.218-.132-1.605-.348-2.212-.376-2.282L81.438 6.5zm4 5.719c-.166 5.45-4.218 9.532-6.75 9.781 3.197-.09 7.191-1.91 7.374-7.969l-.624-1.812zm-9.5 2.531c-.368.033-.728.167-1.063.312-.637.22-1.298.564-1.656 1.157-.356.642-.304 1.419-.063 2.093.233.748.854 2.492 1.125 2.844a.32.32 0 0 0 .031.032c.004.002.028.03.032.031.052.011.077.023.094.031.002.002.029-.001.031 0 .001-.003-.003-.028 0-.031a.453.453 0 0 1 .031-.031c.002-.004.029-.024.031-.032v-.031c.044-.438-.08-2.739-.25-3.375a2.154 2.154 0 0 1-.062-.531c.003-.044.022-.113.031-.157.008-.034.018-.091.031-.124.004-.009.028-.024.031-.032.062-.115.153-.233.25-.312.181-.14.414-.233.626-.313.385-.164 1.035-1.556.75-1.531zM92 18.844c-.498.012-1.109.056-1.812.125-.931.09-4.523.931-5.157 1.406l.594.25c.002-.002.028.002.031 0 .004-.002.028-.029.032-.031.559-.219 3.733-.291 4.593-.375 1.805-.176 3.938-.188 3.938-.188l-.875-1.156s-.515-.051-1.344-.031zm-8.973 4.88c-.034.215-.294 1.363-.496 1.526-.004.003-.027.029-.031.031s-.027-.002-.031 0-.027.03-.031.031h-.032c-.434.074-2.678.052-3.468-.062.002.003-.003.029 0 .031.01.011.022.05.031.063.004.006.028.024.031.031.002.004-.001.028 0 .031.002.008.03.023.031.032v.124c.005.003.026.029.031.032.354.161 2.025.499 2.782.625.544.064 1.152-.025 1.594-.375.448-.359.684-1.538.781-2.093.134-.767-1.138-.378-1.192-.027zm-4.246 1.464c.002.001-.002.029 0 .031.01.002.021-.002.031 0-.002-.002.003-.03 0-.031-.004-.003-.026.001-.031 0zm.094.031c.011.007.02.022.031.031-.02-.003-.013-.028-.031-.031zm-8.469 30.562c-2.159 8.218-8.492 10.754-14.031 11.407-5.539.652-11.124-.904-13.094-1.532l-.343-.125-.282.25c-1.282 1.165-2.895 2.735-4.625 3.907-1.73 1.171-3.509 1.895-5.156 1.562l1 .875c2.154.435 3.015-.148 4.875-1.406 1.76-1.192 3.087-3.377 4.312-4.5 2.202.688 7.763 2.887 13.438 2.219 5.864-.691 11.943-3.869 14.219-12.532l-.313-.125zm-31.312 8.063c-.375.031-.85.112-1.406.25-.514.127-.764.171-.969.25-.034.014-.092.045-.125.062-.29.155-.647.469-1.75 1.313l-1.969 2c1.869-1.355 3.934-2.12 5.094-2.407 1.217-.3 1.906-1.156 1.906-1.156l.094-.312s-.327-.046-.875 0zm4.468 4.344a3.985 3.985 0 0 0-2.062 1.031c-1.003.948-1.785 1.302-1.344 4.375l.625 1.906c-.172-2.565.924-4.771 1.563-5.375.687-.65 1.406-1.75 1.406-1.75l-.062-.187c-.018.001-.076-.008-.126 0z" transform="translate(96.14)"/>
    <path style="fill-rule:evenodd;fill:#000;fill-opacity:.37647" d="M-138.18-164.99s-3.23 7.25-4.18 9.41h-.04c-.36.03-.72.16-1.06.31-.29.1-.57.24-.84.41-8.45-4.88-19.54-5.85-29.94-.35-17.69 11.41-17.75 33.58-9.37 42.53 2.94 8.02-.81 9.86-5.63 10.47-.49.06-.87.16-1.09.28-.03.02-.08.05-.1.07-.07.05-.15.12-.18.18-.02.03-.03.07-.04.1v.03c0 .01-.03.05-.03.06 0 .03.03.07.03.09.01.02 0 .05 0 .07.01 0 .03.02.04.03 0 .01.02.05.03.06 0 .01.02.05.03.06.01.02.04.07.06.1.46.6 1.8 1.327 3.34 1.965l-18.12 22.844c-2.08 3.272 1.15 6.413 4.41 3.781 1.39-1.625 15.77-15.536 22.96-23.375l.16.469c.03.425-.06.912-.25 1.5-.32.983-.13 1.648.22 2.063.52.604 1.37.718 1.37.718s1.1-.922 1.1-4.312c0-.848.06-1.3.19-1.531 0-.014.02-.051.03-.063 0-.006.02-.026.03-.031 0-.005.02-.027.03-.031.01-.013.05-.021.06-.032.01-.003.03-.028.03-.031.01-.003.03.002.03 0 .02-.004.05-.028.07-.031.01-.003.05.002.06 0 .51-.073 1.38.26 2.62-1.344.06-.076.13-.152.19-.219 2.28-2.31 7.69 1.115 17.81.219 17.16-2.469 30.78-27.239 21.75-43.309-.55-1.27-1.22-2.47-1.96-3.63.12-.41.2-.85.25-1.12.03-.22-.03-.35-.16-.41 6.3-.71 10.15 1.48 12.25-.81-1.06-2.09-4.91-6.73-7.88-6.03-1.45.34-2.02-.7-2.37-2.13.01-.11 0-.23 0-.34l-.19-.53c-.23-1.31-.37-2.76-.81-3.72-1.06-2.32-4.91-4.44-4.91-4.44zm-4.84 10.84s.03.01.03 0v.07c-.01-.01-.02-.03-.03-.03.01-.01-.01-.03 0-.04zm7.91 7.29c-.01 0 0 .02 0 .03-.02.01-.05.02-.07.03l-.03.03-.03.03c-.02-.03-.04-.07-.06-.09.06-.01.12-.02.19-.03z" transform="translate(317.14 266.55)"/>
    <path style="fill-rule:evenodd;fill:#000;fill-opacity:.37647" d="M-139.01-165.16s-3.23 7.25-4.19 9.41h-.03c-.37.03-.73.17-1.06.31-.29.1-.58.24-.85.41-8.44-4.87-19.54-5.85-29.93-.35-17.69 11.41-17.75 33.59-9.38 42.54 2.95 8.01-.8 9.85-5.62 10.46-.49.07-.87.17-1.1.29a.47.47 0 0 0-.09.06c-.08.05-.15.12-.19.19-.01.02-.02.07-.03.09v.03c0 .01-.03.05-.03.06 0 .03.03.07.03.1v.06c0 .01.03.02.03.03.01.01.03.05.03.06.01.02.03.05.03.07.02.02.05.07.07.09.46.6 1.79 1.33 3.34 1.969l-18.12 22.843c-2.08 3.273 1.15 6.414 4.4 3.782 1.4-1.626 15.78-15.537 22.97-23.375l.16.468c.03.425-.06.913-.25 1.5-.32.983-.13 1.648.22 2.063.52.604 1.37.719 1.37.719s1.09-.922 1.09-4.313c0-.847.06-1.299.19-1.531.01-.014.02-.05.03-.063.01-.005.03-.026.03-.031.01-.005.03-.026.04-.031.01-.013.04-.021.06-.031 0-.003.02-.029.03-.032.01-.002.02.003.03 0 .01-.004.05-.027.06-.031.02-.003.05.002.07 0 .5-.073 1.38.26 2.62-1.344.06-.075.12-.152.19-.218 2.28-2.304 7.68 1.114 17.81.218 17.16-2.462 30.78-27.242 21.75-43.312-.55-1.27-1.23-2.46-1.97-3.63.13-.4.2-.84.25-1.12.04-.22-.03-.35-.15-.41 6.29-.71 10.15 1.49 12.25-.81-1.07-2.09-4.91-6.73-7.88-6.03-1.45.34-2.03-.7-2.37-2.13 0-.11-.01-.22 0-.34l-.19-.53c-.24-1.31-.37-2.75-.81-3.72-1.07-2.32-4.91-4.44-4.91-4.44zm-4.84 10.85c0-.01.02 0 .03 0-.01.01 0 .04 0 .06l-.03-.03c0-.01-.01-.03 0-.03zm7.9 7.28s.01.03 0 .03c-.01.01-.05.02-.06.03l-.03.03-.03.03a.705.705 0 0 1-.07-.09c.07-.01.13-.02.19-.03z" transform="translate(317.14 266.55)"/>
    <path style="fill-rule:evenodd;fill:url(#z)" d="M37.469 63.311 13.053 94.048c-2.077 3.272 1.163 6.412 4.417 3.785 1.865-2.168 26.823-26.179 27.027-28.511.204-2.333-5.191-6.859-7.028-6.011z" transform="translate(97.14 95.55)"/>
    <path style="fill-rule:evenodd;fill:url(#A)" d="M34.708 57.647c-8.371-8.949-8.31-31.131 9.381-42.536 16.887-8.94 35.65-.782 41.833 13.397 9.026 16.073-4.575 40.852-21.729 43.318-10.454.925-15.872-2.78-18.016-.006-2.145 2.774-3.16-.302-3.16 3.089 0 3.39-1.072 4.315-1.072 4.315s-2.413-.308-1.608-2.774c.804-2.466-.268-3.391-3.753-3.699s-12.33-4.007-7.505-4.624c4.825-.616 8.577-2.466 5.629-10.48z" transform="translate(97.14 95.55)"/>
    <path style="fill:url(#n);fill-rule:evenodd" d="M33.749 51.659c-.084-38.362 47.536-21.758 36.555-34.547-14.591-9.343-45.677 4.846-36.555 34.547z" transform="translate(97.14 95.55)"/>
    <path style="fill-rule:evenodd;fill:#000;fill-opacity:.15" d="m16.286 98.324 24.057-24.235-3.812-1.585-20.245 25.82z" transform="translate(97.14 95.55)"/>
    <path style="fill-rule:evenodd;fill:url(#B)" d="m75.35 16.201 4.821-10.844s3.82 2.09 4.881 4.411c1.061 2.322.424 7.43 3.395 6.733 2.971-.696 6.791 3.947 7.852 6.037-2.334 2.554-6.825-.448-14.464 1.177-2.546.214-6.909-5.424-6.485-7.514z" transform="translate(97.14 95.55)"/>
    <path style="fill-opacity:.75;fill:url(#p);fill-rule:evenodd" d="M80.588 6.489c.718 2.154-.179 13.102-2.871 13.102-.718-1.256 2.333-10.948 2.871-13.102z" transform="translate(97.14 95.55)"/>
    <path style="fill-rule:evenodd;fill:#106910" d="M81.438 6.5s.371 1.655.5 3.219c.122 1.49.464 4.135-.25 5.187l.25-.094c1.292-1.399 1.39-3.507 1.25-5.218-.132-1.605-.348-2.212-.376-2.282L81.438 6.5zm4 5.719c-.166 5.45-4.218 9.532-6.75 9.781 3.197-.09 7.191-1.91 7.374-7.969l-.624-1.812zm-9.5 2.531c-.368.033-.728.167-1.063.312-.637.22-1.298.564-1.656 1.157-.356.642-.304 1.419-.063 2.093.233.748.854 2.492 1.125 2.844a.32.32 0 0 0 .031.032c.004.002.028.03.032.031.052.011.077.023.094.031.002.002.029-.001.031 0 .001-.003-.003-.028 0-.031a.453.453 0 0 1 .031-.031c.002-.004.029-.024.031-.032v-.031c.044-.438-.08-2.739-.25-3.375a2.154 2.154 0 0 1-.062-.531c.003-.044.022-.113.031-.157.008-.034.018-.091.031-.124.004-.009.028-.024.031-.032.062-.115.153-.233.25-.312.181-.14.414-.233.626-.313.385-.164 1.035-1.556.75-1.531zM92 18.844c-.498.012-1.109.056-1.812.125-.931.09-4.523.931-5.157 1.406l.594.25c.002-.002.028.002.031 0 .004-.002.028-.029.032-.031.559-.219 3.733-.291 4.593-.375 1.805-.176 3.938-.188 3.938-.188l-.875-1.156s-.515-.051-1.344-.031zm-8.973 4.88c-.034.215-.294 1.363-.496 1.526-.004.003-.027.029-.031.031s-.027-.002-.031 0-.027.03-.031.031h-.032c-.434.074-2.678.052-3.468-.062.002.003-.003.029 0 .031.01.011.022.05.031.063.004.006.028.024.031.031.002.004-.001.028 0 .031.002.008.03.023.031.032v.124c.005.003.026.029.031.032.354.161 2.025.499 2.782.625.544.064 1.152-.025 1.594-.375.448-.359.684-1.538.781-2.093.134-.767-1.138-.378-1.192-.027zm-4.246 1.464c.002.001-.002.029 0 .031.01.002.021-.002.031 0-.002-.002.003-.03 0-.031-.004-.003-.026.001-.031 0zm.094.031c.011.007.02.022.031.031-.02-.003-.013-.028-.031-.031zm-8.469 30.562c-2.159 8.218-8.492 10.754-14.031 11.407-5.539.652-11.124-.904-13.094-1.532l-.343-.125-.282.25c-1.282 1.165-2.895 2.735-4.625 3.907-1.73 1.171-3.509 1.895-5.156 1.562l1 .875c2.154.435 3.015-.148 4.875-1.406 1.76-1.192 3.087-3.377 4.312-4.5 2.202.688 7.763 2.887 13.438 2.219 5.864-.691 11.943-3.869 14.219-12.532l-.313-.125zm-31.312 8.063c-.375.031-.85.112-1.406.25-.514.127-.764.171-.969.25-.034.014-.092.045-.125.062-.29.155-.647.469-1.75 1.313l-1.969 2c1.869-1.355 3.934-2.12 5.094-2.407 1.217-.3 1.906-1.156 1.906-1.156l.094-.312s-.327-.046-.875 0zm4.468 4.344a3.985 3.985 0 0 0-2.062 1.031c-1.003.948-1.785 1.302-1.344 4.375l.625 1.906c-.172-2.565.924-4.771 1.563-5.375.687-.65 1.406-1.75 1.406-1.75l-.062-.187c-.018.001-.076-.008-.126 0z" transform="translate(97.14 95.55)"/>
    <path style="fill-rule:evenodd;fill:#000;fill-opacity:.37647" d="M-138.18-164.99s-3.23 7.25-4.18 9.41h-.04c-.36.03-.72.16-1.06.31-.29.1-.57.24-.84.41-8.45-4.88-19.54-5.85-29.94-.35-17.69 11.41-17.75 33.58-9.37 42.53 2.94 8.02-.81 9.86-5.63 10.47-.49.06-.87.16-1.09.28-.03.02-.08.05-.1.07-.07.05-.15.12-.18.18-.02.03-.03.07-.04.1v.03c0 .01-.03.05-.03.06 0 .03.03.07.03.09.01.02 0 .05 0 .07.01 0 .03.02.04.03 0 .01.02.05.03.06 0 .01.02.05.03.06.01.02.04.07.06.1.46.6 1.8 1.327 3.34 1.965l-18.12 22.844c-2.08 3.272 1.15 6.413 4.41 3.781 1.39-1.625 15.77-15.536 22.96-23.375l.16.469c.03.425-.06.912-.25 1.5-.32.983-.13 1.648.22 2.063.52.604 1.37.718 1.37.718s1.1-.922 1.1-4.312c0-.848.06-1.3.19-1.531 0-.014.02-.051.03-.063 0-.006.02-.026.03-.031 0-.005.02-.027.03-.031.01-.013.05-.021.06-.032.01-.003.03-.028.03-.031.01-.003.03.002.03 0 .02-.004.05-.028.07-.031.01-.003.05.002.06 0 .51-.073 1.38.26 2.62-1.344.06-.076.13-.152.19-.219 2.28-2.31 7.69 1.115 17.81.219 17.16-2.469 30.78-27.239 21.75-43.309-.55-1.27-1.22-2.47-1.96-3.63.12-.41.2-.85.25-1.12.03-.22-.03-.35-.16-.41 6.3-.71 10.15 1.48 12.25-.81-1.06-2.09-4.91-6.73-7.88-6.03-1.45.34-2.02-.7-2.37-2.13.01-.11 0-.23 0-.34l-.19-.53c-.23-1.31-.37-2.76-.81-3.72-1.06-2.32-4.91-4.44-4.91-4.44zm-4.84 10.84s.03.01.03 0v.07c-.01-.01-.02-.03-.03-.03.01-.01-.01-.03 0-.04zm7.91 7.29c-.01 0 0 .02 0 .03-.02.01-.05.02-.07.03l-.03.03-.03.03c-.02-.03-.04-.07-.06-.09.06-.01.12-.02.19-.03z" transform="translate(317.14 364.1)"/>
    <path style="fill-rule:evenodd;fill:#000;fill-opacity:.37647" d="M-139.01-165.16s-3.23 7.25-4.19 9.41h-.03c-.37.03-.73.17-1.06.31-.29.1-.58.24-.85.41-8.44-4.87-19.54-5.85-29.93-.35-17.69 11.41-17.75 33.59-9.38 42.54 2.95 8.01-.8 9.85-5.62 10.46-.49.07-.87.17-1.1.29a.47.47 0 0 0-.09.06c-.08.05-.15.12-.19.19-.01.02-.02.07-.03.09v.03c0 .01-.03.05-.03.06 0 .03.03.07.03.1v.06c0 .01.03.02.03.03.01.01.03.05.03.06.01.02.03.05.03.07.02.02.05.07.07.09.46.6 1.79 1.33 3.34 1.969l-18.12 22.843c-2.08 3.273 1.15 6.414 4.4 3.782 1.4-1.626 15.78-15.537 22.97-23.375l.16.468c.03.425-.06.913-.25 1.5-.32.983-.13 1.648.22 2.063.52.604 1.37.719 1.37.719s1.09-.922 1.09-4.313c0-.847.06-1.299.19-1.531.01-.014.02-.05.03-.063.01-.005.03-.026.03-.031.01-.005.03-.026.04-.031.01-.013.04-.021.06-.031 0-.003.02-.029.03-.032.01-.002.02.003.03 0 .01-.004.05-.027.06-.031.02-.003.05.002.07 0 .5-.073 1.38.26 2.62-1.344.06-.075.12-.152.19-.218 2.28-2.304 7.68 1.114 17.81.218 17.16-2.462 30.78-27.242 21.75-43.312-.55-1.27-1.23-2.46-1.97-3.63.13-.4.2-.84.25-1.12.04-.22-.03-.35-.15-.41 6.29-.71 10.15 1.49 12.25-.81-1.07-2.09-4.91-6.73-7.88-6.03-1.45.34-2.03-.7-2.37-2.13 0-.11-.01-.22 0-.34l-.19-.53c-.24-1.31-.37-2.75-.81-3.72-1.07-2.32-4.91-4.44-4.91-4.44zm-4.84 10.85c0-.01.02 0 .03 0-.01.01 0 .04 0 .06l-.03-.03c0-.01-.01-.03 0-.03zm7.9 7.28s.01.03 0 .03c-.01.01-.05.02-.06.03l-.03.03-.03.03a.705.705 0 0 1-.07-.09c.07-.01.13-.02.19-.03z" transform="translate(317.14 364.1)"/>
    <path style="fill-rule:evenodd;fill:url(#C)" d="M37.469 63.311 13.053 94.048c-2.077 3.272 1.163 6.412 4.417 3.785 1.865-2.168 26.823-26.179 27.027-28.511.204-2.333-5.191-6.859-7.028-6.011z" transform="translate(97.14 193.1)"/>
    <path style="fill-rule:evenodd;fill:url(#D)" d="M34.708 57.647c-8.371-8.949-8.31-31.131 9.381-42.536 16.887-8.94 35.65-.782 41.833 13.397 9.026 16.073-4.575 40.852-21.729 43.318-10.454.925-15.872-2.78-18.016-.006-2.145 2.774-3.16-.302-3.16 3.089 0 3.39-1.072 4.315-1.072 4.315s-2.413-.308-1.608-2.774c.804-2.466-.268-3.391-3.753-3.699s-12.33-4.007-7.505-4.624c4.825-.616 8.577-2.466 5.629-10.48z" transform="translate(97.14 193.1)"/>
    <path style="fill:url(#n);fill-rule:evenodd" d="M33.749 51.659c-.084-38.362 47.536-21.758 36.555-34.547-14.591-9.343-45.677 4.846-36.555 34.547z" transform="translate(97.14 193.1)"/>
    <path style="fill-rule:evenodd;fill:#000;fill-opacity:.15" d="m16.286 98.324 24.057-24.235-3.812-1.585-20.245 25.82z" transform="translate(97.14 193.1)"/>
    <path style="fill-rule:evenodd;fill:url(#E)" d="m75.35 16.201 4.821-10.844s3.82 2.09 4.881 4.411c1.061 2.322.424 7.43 3.395 6.733 2.971-.696 6.791 3.947 7.852 6.037-2.334 2.554-6.825-.448-14.464 1.177-2.546.214-6.909-5.424-6.485-7.514z" transform="translate(97.14 193.1)"/>
    <path style="fill-opacity:.75;fill:url(#p);fill-rule:evenodd" d="M80.588 6.489c.718 2.154-.179 13.102-2.871 13.102-.718-1.256 2.333-10.948 2.871-13.102z" transform="translate(97.14 193.1)"/>
    <path style="fill-rule:evenodd;fill:#6c1343" d="M81.438 6.5s.371 1.655.5 3.219c.122 1.49.464 4.135-.25 5.187l.25-.094c1.292-1.399 1.39-3.507 1.25-5.218-.132-1.605-.348-2.212-.376-2.282L81.438 6.5zm4 5.719c-.166 5.45-4.218 9.532-6.75 9.781 3.197-.09 7.191-1.91 7.374-7.969l-.624-1.812zm-9.5 2.531c-.368.033-.728.167-1.063.312-.637.22-1.298.564-1.656 1.157-.356.642-.304 1.419-.063 2.093.233.748.854 2.492 1.125 2.844a.32.32 0 0 0 .031.032c.004.002.028.03.032.031.052.011.077.023.094.031.002.002.029-.001.031 0 .001-.003-.003-.028 0-.031a.453.453 0 0 1 .031-.031c.002-.004.029-.024.031-.032v-.031c.044-.438-.08-2.739-.25-3.375a2.154 2.154 0 0 1-.062-.531c.003-.044.022-.113.031-.157.008-.034.018-.091.031-.124.004-.009.028-.024.031-.032.062-.115.153-.233.25-.312.181-.14.414-.233.626-.313.385-.164 1.035-1.556.75-1.531zM92 18.844c-.498.012-1.109.056-1.812.125-.931.09-4.523.931-5.157 1.406l.594.25c.002-.002.028.002.031 0 .004-.002.028-.029.032-.031.559-.219 3.733-.291 4.593-.375 1.805-.176 3.938-.188 3.938-.188l-.875-1.156s-.515-.051-1.344-.031zm-8.973 4.88c-.034.215-.294 1.363-.496 1.526-.004.003-.027.029-.031.031s-.027-.002-.031 0-.027.03-.031.031h-.032c-.434.074-2.678.052-3.468-.062.002.003-.003.029 0 .031.01.011.022.05.031.063.004.006.028.024.031.031.002.004-.001.028 0 .031.002.008.03.023.031.032v.124c.005.003.026.029.031.032.354.161 2.025.499 2.782.625.544.064 1.152-.025 1.594-.375.448-.359.684-1.538.781-2.093.134-.767-1.138-.378-1.192-.027zm-4.246 1.464c.002.001-.002.029 0 .031.01.002.021-.002.031 0-.002-.002.003-.03 0-.031-.004-.003-.026.001-.031 0zm.094.031c.011.007.02.022.031.031-.02-.003-.013-.028-.031-.031zm-8.469 30.562c-2.159 8.218-8.492 10.754-14.031 11.407-5.539.652-11.124-.904-13.094-1.532l-.343-.125-.282.25c-1.282 1.165-2.895 2.735-4.625 3.907-1.73 1.171-3.509 1.895-5.156 1.562l1 .875c2.154.435 3.015-.148 4.875-1.406 1.76-1.192 3.087-3.377 4.312-4.5 2.202.688 7.763 2.887 13.438 2.219 5.864-.691 11.943-3.869 14.219-12.532l-.313-.125zm-31.312 8.063c-.375.031-.85.112-1.406.25-.514.127-.764.171-.969.25-.034.014-.092.045-.125.062-.29.155-.647.469-1.75 1.313l-1.969 2c1.869-1.355 3.934-2.12 5.094-2.407 1.217-.3 1.906-1.156 1.906-1.156l.094-.312s-.327-.046-.875 0zm4.468 4.344a3.985 3.985 0 0 0-2.062 1.031c-1.003.948-1.785 1.302-1.344 4.375l.625 1.906c-.172-2.565.924-4.771 1.563-5.375.687-.65 1.406-1.75 1.406-1.75l-.062-.187c-.018.001-.076-.008-.126 0z" transform="translate(97.14 193.1)"/>
    <path style="fill-rule:evenodd;fill:#000;fill-opacity:.37647" d="M-138.18-164.99s-3.23 7.25-4.18 9.41h-.04c-.36.03-.72.16-1.06.31-.29.1-.57.24-.84.41-8.45-4.88-19.54-5.85-29.94-.35-17.69 11.41-17.75 33.58-9.37 42.53 2.94 8.02-.81 9.86-5.63 10.47-.49.06-.87.16-1.09.28-.03.02-.08.05-.1.07-.07.05-.15.12-.18.18-.02.03-.03.07-.04.1v.03c0 .01-.03.05-.03.06 0 .03.03.07.03.09.01.02 0 .05 0 .07.01 0 .03.02.04.03 0 .01.02.05.03.06 0 .01.02.05.03.06.01.02.04.07.06.1.46.6 1.8 1.327 3.34 1.965l-18.12 22.844c-2.08 3.272 1.15 6.413 4.41 3.781 1.39-1.625 15.77-15.536 22.96-23.375l.16.469c.03.425-.06.912-.25 1.5-.32.983-.13 1.648.22 2.063.52.604 1.37.718 1.37.718s1.1-.922 1.1-4.312c0-.848.06-1.3.19-1.531 0-.014.02-.051.03-.063 0-.006.02-.026.03-.031 0-.005.02-.027.03-.031.01-.013.05-.021.06-.032.01-.003.03-.028.03-.031.01-.003.03.002.03 0 .02-.004.05-.028.07-.031.01-.003.05.002.06 0 .51-.073 1.38.26 2.62-1.344.06-.076.13-.152.19-.219 2.28-2.31 7.69 1.115 17.81.219 17.16-2.469 30.78-27.239 21.75-43.309-.55-1.27-1.22-2.47-1.96-3.63.12-.41.2-.85.25-1.12.03-.22-.03-.35-.16-.41 6.3-.71 10.15 1.48 12.25-.81-1.06-2.09-4.91-6.73-7.88-6.03-1.45.34-2.02-.7-2.37-2.13.01-.11 0-.23 0-.34l-.19-.53c-.23-1.31-.37-2.76-.81-3.72-1.06-2.32-4.91-4.44-4.91-4.44zm-4.84 10.84s.03.01.03 0v.07c-.01-.01-.02-.03-.03-.03.01-.01-.01-.03 0-.04zm7.91 7.29c-.01 0 0 .02 0 .03-.02.01-.05.02-.07.03l-.03.03-.03.03c-.02-.03-.04-.07-.06-.09.06-.01.12-.02.19-.03z" transform="translate(398.28 171)"/>
    <path style="fill-rule:evenodd;fill:#000;fill-opacity:.37647" d="M-139.01-165.16s-3.23 7.25-4.19 9.41h-.03c-.37.03-.73.17-1.06.31-.29.1-.58.24-.85.41-8.44-4.87-19.54-5.85-29.93-.35-17.69 11.41-17.75 33.59-9.38 42.54 2.95 8.01-.8 9.85-5.62 10.46-.49.07-.87.17-1.1.29a.47.47 0 0 0-.09.06c-.08.05-.15.12-.19.19-.01.02-.02.07-.03.09v.03c0 .01-.03.05-.03.06 0 .03.03.07.03.1v.06c0 .01.03.02.03.03.01.01.03.05.03.06.01.02.03.05.03.07.02.02.05.07.07.09.46.6 1.79 1.33 3.34 1.969l-18.12 22.843c-2.08 3.273 1.15 6.414 4.4 3.782 1.4-1.626 15.78-15.537 22.97-23.375l.16.468c.03.425-.06.913-.25 1.5-.32.983-.13 1.648.22 2.063.52.604 1.37.719 1.37.719s1.09-.922 1.09-4.313c0-.847.06-1.299.19-1.531.01-.014.02-.05.03-.063.01-.005.03-.026.03-.031.01-.005.03-.026.04-.031.01-.013.04-.021.06-.031 0-.003.02-.029.03-.032.01-.002.02.003.03 0 .01-.004.05-.027.06-.031.02-.003.05.002.07 0 .5-.073 1.38.26 2.62-1.344.06-.075.12-.152.19-.218 2.28-2.304 7.68 1.114 17.81.218 17.16-2.462 30.78-27.242 21.75-43.312-.55-1.27-1.23-2.46-1.97-3.63.13-.4.2-.84.25-1.12.04-.22-.03-.35-.15-.41 6.29-.71 10.15 1.49 12.25-.81-1.07-2.09-4.91-6.73-7.88-6.03-1.45.34-2.03-.7-2.37-2.13 0-.11-.01-.22 0-.34l-.19-.53c-.24-1.31-.37-2.75-.81-3.72-1.07-2.32-4.91-4.44-4.91-4.44zm-4.84 10.85c0-.01.02 0 .03 0-.01.01 0 .04 0 .06l-.03-.03c0-.01-.01-.03 0-.03zm7.9 7.28s.01.03 0 .03c-.01.01-.05.02-.06.03l-.03.03-.03.03a.705.705 0 0 1-.07-.09c.07-.01.13-.02.19-.03z" transform="translate(398.28 171)"/>
    <path style="fill-rule:evenodd;fill:url(#F)" d="M37.469 63.311 13.053 94.048c-2.077 3.272 1.163 6.412 4.417 3.785 1.865-2.168 26.823-26.179 27.027-28.511.204-2.333-5.191-6.859-7.028-6.011z" transform="translate(178.28)"/>
    <path style="fill-rule:evenodd;fill:url(#G)" d="M34.708 57.647c-8.371-8.949-8.31-31.131 9.381-42.536 16.887-8.94 35.65-.782 41.833 13.397 9.026 16.073-4.575 40.852-21.729 43.318-10.454.925-15.872-2.78-18.016-.006-2.145 2.774-3.16-.302-3.16 3.089 0 3.39-1.072 4.315-1.072 4.315s-2.413-.308-1.608-2.774c.804-2.466-.268-3.391-3.753-3.699s-12.33-4.007-7.505-4.624c4.825-.616 8.577-2.466 5.629-10.48z" transform="translate(178.28)"/>
    <path style="fill:url(#n);fill-rule:evenodd" d="M33.749 51.659c-.084-38.362 47.536-21.758 36.555-34.547-14.591-9.343-45.677 4.846-36.555 34.547z" transform="translate(178.28)"/>
    <path style="fill-rule:evenodd;fill:#000;fill-opacity:.15" d="m16.286 98.324 24.057-24.235-3.812-1.585-20.245 25.82z" transform="translate(178.28)"/>
    <path style="fill-rule:evenodd;fill:url(#H)" d="m75.35 16.201 4.821-10.844s3.82 2.09 4.881 4.411c1.061 2.322.424 7.43 3.395 6.733 2.971-.696 6.791 3.947 7.852 6.037-2.334 2.554-6.825-.448-14.464 1.177-2.546.214-6.909-5.424-6.485-7.514z" transform="translate(178.28)"/>
    <path style="fill-opacity:.75;fill:url(#p);fill-rule:evenodd" d="M80.588 6.489c.718 2.154-.179 13.102-2.871 13.102-.718-1.256 2.333-10.948 2.871-13.102z" transform="translate(178.28)"/>
    <path style="fill-rule:evenodd;fill:#860c14" d="M81.438 6.5s.371 1.655.5 3.219c.122 1.49.464 4.135-.25 5.187l.25-.094c1.292-1.399 1.39-3.507 1.25-5.218-.132-1.605-.348-2.212-.376-2.282L81.438 6.5zm4 5.719c-.166 5.45-4.218 9.532-6.75 9.781 3.197-.09 7.191-1.91 7.374-7.969l-.624-1.812zm-9.5 2.531c-.368.033-.728.167-1.063.312-.637.22-1.298.564-1.656 1.157-.356.642-.304 1.419-.063 2.093.233.748.854 2.492 1.125 2.844a.32.32 0 0 0 .031.032c.004.002.028.03.032.031.052.011.077.023.094.031.002.002.029-.001.031 0 .001-.003-.003-.028 0-.031a.453.453 0 0 1 .031-.031c.002-.004.029-.024.031-.032v-.031c.044-.438-.08-2.739-.25-3.375a2.154 2.154 0 0 1-.062-.531c.003-.044.022-.113.031-.157.008-.034.018-.091.031-.124.004-.009.028-.024.031-.032.062-.115.153-.233.25-.312.181-.14.414-.233.626-.313.385-.164 1.035-1.556.75-1.531zM92 18.844c-.498.012-1.109.056-1.812.125-.931.09-4.523.931-5.157 1.406l.594.25c.002-.002.028.002.031 0 .004-.002.028-.029.032-.031.559-.219 3.733-.291 4.593-.375 1.805-.176 3.938-.188 3.938-.188l-.875-1.156s-.515-.051-1.344-.031zm-8.973 4.88c-.034.215-.294 1.363-.496 1.526-.004.003-.027.029-.031.031s-.027-.002-.031 0-.027.03-.031.031h-.032c-.434.074-2.678.052-3.468-.062.002.003-.003.029 0 .031.01.011.022.05.031.063.004.006.028.024.031.031.002.004-.001.028 0 .031.002.008.03.023.031.032v.124c.005.003.026.029.031.032.354.161 2.025.499 2.782.625.544.064 1.152-.025 1.594-.375.448-.359.684-1.538.781-2.093.134-.767-1.138-.378-1.192-.027zm-4.246 1.464c.002.001-.002.029 0 .031.01.002.021-.002.031 0-.002-.002.003-.03 0-.031-.004-.003-.026.001-.031 0zm.094.031c.011.007.02.022.031.031-.02-.003-.013-.028-.031-.031zm-8.469 30.562c-2.159 8.218-8.492 10.754-14.031 11.407-5.539.652-11.124-.904-13.094-1.532l-.343-.125-.282.25c-1.282 1.165-2.895 2.735-4.625 3.907-1.73 1.171-3.509 1.895-5.156 1.562l1 .875c2.154.435 3.015-.148 4.875-1.406 1.76-1.192 3.087-3.377 4.312-4.5 2.202.688 7.763 2.887 13.438 2.219 5.864-.691 11.943-3.869 14.219-12.532l-.313-.125zm-31.312 8.063c-.375.031-.85.112-1.406.25-.514.127-.764.171-.969.25-.034.014-.092.045-.125.062-.29.155-.647.469-1.75 1.313l-1.969 2c1.869-1.355 3.934-2.12 5.094-2.407 1.217-.3 1.906-1.156 1.906-1.156l.094-.312s-.327-.046-.875 0zm4.468 4.344a3.985 3.985 0 0 0-2.062 1.031c-1.003.948-1.785 1.302-1.344 4.375l.625 1.906c-.172-2.565.924-4.771 1.563-5.375.687-.65 1.406-1.75 1.406-1.75l-.062-.187c-.018.001-.076-.008-.126 0z" transform="translate(178.28)"/>
    <path style="fill-rule:evenodd;fill:#000;fill-opacity:.37647" d="M-138.18-164.99s-3.23 7.25-4.18 9.41h-.04c-.36.03-.72.16-1.06.31-.29.1-.57.24-.84.41-8.45-4.88-19.54-5.85-29.94-.35-17.69 11.41-17.75 33.58-9.37 42.53 2.94 8.02-.81 9.86-5.63 10.47-.49.06-.87.16-1.09.28-.03.02-.08.05-.1.07-.07.05-.15.12-.18.18-.02.03-.03.07-.04.1v.03c0 .01-.03.05-.03.06 0 .03.03.07.03.09.01.02 0 .05 0 .07.01 0 .03.02.04.03 0 .01.02.05.03.06 0 .01.02.05.03.06.01.02.04.07.06.1.46.6 1.8 1.327 3.34 1.965l-18.12 22.844c-2.08 3.272 1.15 6.413 4.41 3.781 1.39-1.625 15.77-15.536 22.96-23.375l.16.469c.03.425-.06.912-.25 1.5-.32.983-.13 1.648.22 2.063.52.604 1.37.718 1.37.718s1.1-.922 1.1-4.312c0-.848.06-1.3.19-1.531 0-.014.02-.051.03-.063 0-.006.02-.026.03-.031 0-.005.02-.027.03-.031.01-.013.05-.021.06-.032.01-.003.03-.028.03-.031.01-.003.03.002.03 0 .02-.004.05-.028.07-.031.01-.003.05.002.06 0 .51-.073 1.38.26 2.62-1.344.06-.076.13-.152.19-.219 2.28-2.31 7.69 1.115 17.81.219 17.16-2.469 30.78-27.239 21.75-43.309-.55-1.27-1.22-2.47-1.96-3.63.12-.41.2-.85.25-1.12.03-.22-.03-.35-.16-.41 6.3-.71 10.15 1.48 12.25-.81-1.06-2.09-4.91-6.73-7.88-6.03-1.45.34-2.02-.7-2.37-2.13.01-.11 0-.23 0-.34l-.19-.53c-.23-1.31-.37-2.76-.81-3.72-1.06-2.32-4.91-4.44-4.91-4.44zm-4.84 10.84s.03.01.03 0v.07c-.01-.01-.02-.03-.03-.03.01-.01-.01-.03 0-.04zm7.91 7.29c-.01 0 0 .02 0 .03-.02.01-.05.02-.07.03l-.03.03-.03.03c-.02-.03-.04-.07-.06-.09.06-.01.12-.02.19-.03z" transform="translate(399.28 266.55)"/>
    <path style="fill-rule:evenodd;fill:#000;fill-opacity:.37647" d="M-139.01-165.16s-3.23 7.25-4.19 9.41h-.03c-.37.03-.73.17-1.06.31-.29.1-.58.24-.85.41-8.44-4.87-19.54-5.85-29.93-.35-17.69 11.41-17.75 33.59-9.38 42.54 2.95 8.01-.8 9.85-5.62 10.46-.49.07-.87.17-1.1.29a.47.47 0 0 0-.09.06c-.08.05-.15.12-.19.19-.01.02-.02.07-.03.09v.03c0 .01-.03.05-.03.06 0 .03.03.07.03.1v.06c0 .01.03.02.03.03.01.01.03.05.03.06.01.02.03.05.03.07.02.02.05.07.07.09.46.6 1.79 1.33 3.34 1.969l-18.12 22.843c-2.08 3.273 1.15 6.414 4.4 3.782 1.4-1.626 15.78-15.537 22.97-23.375l.16.468c.03.425-.06.913-.25 1.5-.32.983-.13 1.648.22 2.063.52.604 1.37.719 1.37.719s1.09-.922 1.09-4.313c0-.847.06-1.299.19-1.531.01-.014.02-.05.03-.063.01-.005.03-.026.03-.031.01-.005.03-.026.04-.031.01-.013.04-.021.06-.031 0-.003.02-.029.03-.032.01-.002.02.003.03 0 .01-.004.05-.027.06-.031.02-.003.05.002.07 0 .5-.073 1.38.26 2.62-1.344.06-.075.12-.152.19-.218 2.28-2.304 7.68 1.114 17.81.218 17.16-2.462 30.78-27.242 21.75-43.312-.55-1.27-1.23-2.46-1.97-3.63.13-.4.2-.84.25-1.12.04-.22-.03-.35-.15-.41 6.29-.71 10.15 1.49 12.25-.81-1.07-2.09-4.91-6.73-7.88-6.03-1.45.34-2.03-.7-2.37-2.13 0-.11-.01-.22 0-.34l-.19-.53c-.24-1.31-.37-2.75-.81-3.72-1.07-2.32-4.91-4.44-4.91-4.44zm-4.84 10.85c0-.01.02 0 .03 0-.01.01 0 .04 0 .06l-.03-.03c0-.01-.01-.03 0-.03zm7.9 7.28s.01.03 0 .03c-.01.01-.05.02-.06.03l-.03.03-.03.03a.705.705 0 0 1-.07-.09c.07-.01.13-.02.19-.03z" transform="translate(399.28 266.55)"/>
    <path style="fill-rule:evenodd;fill:url(#I)" d="M37.469 63.311 13.053 94.048c-2.077 3.272 1.163 6.412 4.417 3.785 1.865-2.168 26.823-26.179 27.027-28.511.204-2.333-5.191-6.859-7.028-6.011z" transform="translate(179.28 95.55)"/>
    <path style="fill-rule:evenodd;fill:url(#J)" d="M34.708 57.647c-8.371-8.949-8.31-31.131 9.381-42.536 16.887-8.94 35.65-.782 41.833 13.397 9.026 16.073-4.575 40.852-21.729 43.318-10.454.925-15.872-2.78-18.016-.006-2.145 2.774-3.16-.302-3.16 3.089 0 3.39-1.072 4.315-1.072 4.315s-2.413-.308-1.608-2.774c.804-2.466-.268-3.391-3.753-3.699s-12.33-4.007-7.505-4.624c4.825-.616 8.577-2.466 5.629-10.48z" transform="translate(179.28 95.55)"/>
    <path style="fill:url(#n);fill-rule:evenodd" d="M33.749 51.659c-.084-38.362 47.536-21.758 36.555-34.547-14.591-9.343-45.677 4.846-36.555 34.547z" transform="translate(179.28 95.55)"/>
    <path style="fill-rule:evenodd;fill:#000;fill-opacity:.15" d="m16.286 98.324 24.057-24.235-3.812-1.585-20.245 25.82z" transform="translate(179.28 95.55)"/>
    <path style="fill-rule:evenodd;fill:url(#K)" d="m75.35 16.201 4.821-10.844s3.82 2.09 4.881 4.411c1.061 2.322.424 7.43 3.395 6.733 2.971-.696 6.791 3.947 7.852 6.037-2.334 2.554-6.825-.448-14.464 1.177-2.546.214-6.909-5.424-6.485-7.514z" transform="translate(179.28 95.55)"/>
    <path style="fill-opacity:.75;fill:url(#p);fill-rule:evenodd" d="M80.588 6.489c.718 2.154-.179 13.102-2.871 13.102-.718-1.256 2.333-10.948 2.871-13.102z" transform="translate(179.28 95.55)"/>
    <path style="fill-rule:evenodd;fill:#928e15" d="M81.438 6.5s.371 1.655.5 3.219c.122 1.49.464 4.135-.25 5.187l.25-.094c1.292-1.399 1.39-3.507 1.25-5.218-.132-1.605-.348-2.212-.376-2.282L81.438 6.5zm4 5.719c-.166 5.45-4.218 9.532-6.75 9.781 3.197-.09 7.191-1.91 7.374-7.969l-.624-1.812zm-9.5 2.531c-.368.033-.728.167-1.063.312-.637.22-1.298.564-1.656 1.157-.356.642-.304 1.419-.063 2.093.233.748.854 2.492 1.125 2.844a.32.32 0 0 0 .031.032c.004.002.028.03.032.031.052.011.077.023.094.031.002.002.029-.001.031 0 .001-.003-.003-.028 0-.031a.453.453 0 0 1 .031-.031c.002-.004.029-.024.031-.032v-.031c.044-.438-.08-2.739-.25-3.375a2.154 2.154 0 0 1-.062-.531c.003-.044.022-.113.031-.157.008-.034.018-.091.031-.124.004-.009.028-.024.031-.032.062-.115.153-.233.25-.312.181-.14.414-.233.626-.313.385-.164 1.035-1.556.75-1.531zM92 18.844c-.498.012-1.109.056-1.812.125-.931.09-4.523.931-5.157 1.406l.594.25c.002-.002.028.002.031 0 .004-.002.028-.029.032-.031.559-.219 3.733-.291 4.593-.375 1.805-.176 3.938-.188 3.938-.188l-.875-1.156s-.515-.051-1.344-.031zm-8.973 4.88c-.034.215-.294 1.363-.496 1.526-.004.003-.027.029-.031.031s-.027-.002-.031 0-.027.03-.031.031h-.032c-.434.074-2.678.052-3.468-.062.002.003-.003.029 0 .031.01.011.022.05.031.063.004.006.028.024.031.031.002.004-.001.028 0 .031.002.008.03.023.031.032v.124c.005.003.026.029.031.032.354.161 2.025.499 2.782.625.544.064 1.152-.025 1.594-.375.448-.359.684-1.538.781-2.093.134-.767-1.138-.378-1.192-.027zm-4.246 1.464c.002.001-.002.029 0 .031.01.002.021-.002.031 0-.002-.002.003-.03 0-.031-.004-.003-.026.001-.031 0zm.094.031c.011.007.02.022.031.031-.02-.003-.013-.028-.031-.031zm-8.469 30.562c-2.159 8.218-8.492 10.754-14.031 11.407-5.539.652-11.124-.904-13.094-1.532l-.343-.125-.282.25c-1.282 1.165-2.895 2.735-4.625 3.907-1.73 1.171-3.509 1.895-5.156 1.562l1 .875c2.154.435 3.015-.148 4.875-1.406 1.76-1.192 3.087-3.377 4.312-4.5 2.202.688 7.763 2.887 13.438 2.219 5.864-.691 11.943-3.869 14.219-12.532l-.313-.125zm-31.312 8.063c-.375.031-.85.112-1.406.25-.514.127-.764.171-.969.25-.034.014-.092.045-.125.062-.29.155-.647.469-1.75 1.313l-1.969 2c1.869-1.355 3.934-2.12 5.094-2.407 1.217-.3 1.906-1.156 1.906-1.156l.094-.312s-.327-.046-.875 0zm4.468 4.344a3.985 3.985 0 0 0-2.062 1.031c-1.003.948-1.785 1.302-1.344 4.375l.625 1.906c-.172-2.565.924-4.771 1.563-5.375.687-.65 1.406-1.75 1.406-1.75l-.062-.187c-.018.001-.076-.008-.126 0z" transform="translate(179.28 95.55)"/>
    <path style="fill-rule:evenodd;fill:#000;fill-opacity:.37647" d="M-138.18-164.99s-3.23 7.25-4.18 9.41h-.04c-.36.03-.72.16-1.06.31-.29.1-.57.24-.84.41-8.45-4.88-19.54-5.85-29.94-.35-17.69 11.41-17.75 33.58-9.37 42.53 2.94 8.02-.81 9.86-5.63 10.47-.49.06-.87.16-1.09.28-.03.02-.08.05-.1.07-.07.05-.15.12-.18.18-.02.03-.03.07-.04.1v.03c0 .01-.03.05-.03.06 0 .03.03.07.03.09.01.02 0 .05 0 .07.01 0 .03.02.04.03 0 .01.02.05.03.06 0 .01.02.05.03.06.01.02.04.07.06.1.46.6 1.8 1.327 3.34 1.965l-18.12 22.844c-2.08 3.272 1.15 6.413 4.41 3.781 1.39-1.625 15.77-15.536 22.96-23.375l.16.469c.03.425-.06.912-.25 1.5-.32.983-.13 1.648.22 2.063.52.604 1.37.718 1.37.718s1.1-.922 1.1-4.312c0-.848.06-1.3.19-1.531 0-.014.02-.051.03-.063 0-.006.02-.026.03-.031 0-.005.02-.027.03-.031.01-.013.05-.021.06-.032.01-.003.03-.028.03-.031.01-.003.03.002.03 0 .02-.004.05-.028.07-.031.01-.003.05.002.06 0 .51-.073 1.38.26 2.62-1.344.06-.076.13-.152.19-.219 2.28-2.31 7.69 1.115 17.81.219 17.16-2.469 30.78-27.239 21.75-43.309-.55-1.27-1.22-2.47-1.96-3.63.12-.41.2-.85.25-1.12.03-.22-.03-.35-.16-.41 6.3-.71 10.15 1.48 12.25-.81-1.06-2.09-4.91-6.73-7.88-6.03-1.45.34-2.02-.7-2.37-2.13.01-.11 0-.23 0-.34l-.19-.53c-.23-1.31-.37-2.76-.81-3.72-1.06-2.32-4.91-4.44-4.91-4.44zm-4.84 10.84s.03.01.03 0v.07c-.01-.01-.02-.03-.03-.03.01-.01-.01-.03 0-.04zm7.91 7.29c-.01 0 0 .02 0 .03-.02.01-.05.02-.07.03l-.03.03-.03.03c-.02-.03-.04-.07-.06-.09.06-.01.12-.02.19-.03z" transform="translate(399.28 364.1)"/>
    <path style="fill-rule:evenodd;fill:#000;fill-opacity:.37647" d="M-139.01-165.16s-3.23 7.25-4.19 9.41h-.03c-.37.03-.73.17-1.06.31-.29.1-.58.24-.85.41-8.44-4.87-19.54-5.85-29.93-.35-17.69 11.41-17.75 33.59-9.38 42.54 2.95 8.01-.8 9.85-5.62 10.46-.49.07-.87.17-1.1.29a.47.47 0 0 0-.09.06c-.08.05-.15.12-.19.19-.01.02-.02.07-.03.09v.03c0 .01-.03.05-.03.06 0 .03.03.07.03.1v.06c0 .01.03.02.03.03.01.01.03.05.03.06.01.02.03.05.03.07.02.02.05.07.07.09.46.6 1.79 1.33 3.34 1.969l-18.12 22.843c-2.08 3.273 1.15 6.414 4.4 3.782 1.4-1.626 15.78-15.537 22.97-23.375l.16.468c.03.425-.06.913-.25 1.5-.32.983-.13 1.648.22 2.063.52.604 1.37.719 1.37.719s1.09-.922 1.09-4.313c0-.847.06-1.299.19-1.531.01-.014.02-.05.03-.063.01-.005.03-.026.03-.031.01-.005.03-.026.04-.031.01-.013.04-.021.06-.031 0-.003.02-.029.03-.032.01-.002.02.003.03 0 .01-.004.05-.027.06-.031.02-.003.05.002.07 0 .5-.073 1.38.26 2.62-1.344.06-.075.12-.152.19-.218 2.28-2.304 7.68 1.114 17.81.218 17.16-2.462 30.78-27.242 21.75-43.312-.55-1.27-1.23-2.46-1.97-3.63.13-.4.2-.84.25-1.12.04-.22-.03-.35-.15-.41 6.29-.71 10.15 1.49 12.25-.81-1.07-2.09-4.91-6.73-7.88-6.03-1.45.34-2.03-.7-2.37-2.13 0-.11-.01-.22 0-.34l-.19-.53c-.24-1.31-.37-2.75-.81-3.72-1.07-2.32-4.91-4.44-4.91-4.44zm-4.84 10.85c0-.01.02 0 .03 0-.01.01 0 .04 0 .06l-.03-.03c0-.01-.01-.03 0-.03zm7.9 7.28s.01.03 0 .03c-.01.01-.05.02-.06.03l-.03.03-.03.03a.705.705 0 0 1-.07-.09c.07-.01.13-.02.19-.03z" transform="translate(399.28 364.1)"/>
    <path style="fill-rule:evenodd;fill:url(#L)" d="M37.469 63.311 13.053 94.048c-2.077 3.272 1.163 6.412 4.417 3.785 1.865-2.168 26.823-26.179 27.027-28.511.204-2.333-5.191-6.859-7.028-6.011z" transform="translate(179.28 193.1)"/>
    <path style="fill-rule:evenodd;fill:url(#M)" d="M34.708 57.647c-8.371-8.949-8.31-31.131 9.381-42.536 16.887-8.94 35.65-.782 41.833 13.397 9.026 16.073-4.575 40.852-21.729 43.318-10.454.925-15.872-2.78-18.016-.006-2.145 2.774-3.16-.302-3.16 3.089 0 3.39-1.072 4.315-1.072 4.315s-2.413-.308-1.608-2.774c.804-2.466-.268-3.391-3.753-3.699s-12.33-4.007-7.505-4.624c4.825-.616 8.577-2.466 5.629-10.48z" transform="translate(179.28 193.1)"/>
    <path style="fill:url(#n);fill-rule:evenodd" d="M33.749 51.659c-.084-38.362 47.536-21.758 36.555-34.547-14.591-9.343-45.677 4.846-36.555 34.547z" transform="translate(179.28 193.1)"/>
    <path style="fill-rule:evenodd;fill:#000;fill-opacity:.15" d="m16.286 98.324 24.057-24.235-3.812-1.585-20.245 25.82z" transform="translate(179.28 193.1)"/>
    <path style="fill-rule:evenodd;fill:url(#N)" d="m75.35 16.201 4.821-10.844s3.82 2.09 4.881 4.411c1.061 2.322.424 7.43 3.395 6.733 2.971-.696 6.791 3.947 7.852 6.037-2.334 2.554-6.825-.448-14.464 1.177-2.546.214-6.909-5.424-6.485-7.514z" transform="translate(179.28 193.1)"/>
    <path style="fill-opacity:.75;fill:url(#p);fill-rule:evenodd" d="M80.588 6.489c.718 2.154-.179 13.102-2.871 13.102-.718-1.256 2.333-10.948 2.871-13.102z" transform="translate(179.28 193.1)"/>
    <path style="fill-rule:evenodd;fill:#137976" d="M81.438 6.5s.371 1.655.5 3.219c.122 1.49.464 4.135-.25 5.187l.25-.094c1.292-1.399 1.39-3.507 1.25-5.218-.132-1.605-.348-2.212-.376-2.282L81.438 6.5zm4 5.719c-.166 5.45-4.218 9.532-6.75 9.781 3.197-.09 7.191-1.91 7.374-7.969l-.624-1.812zm-9.5 2.531c-.368.033-.728.167-1.063.312-.637.22-1.298.564-1.656 1.157-.356.642-.304 1.419-.063 2.093.233.748.854 2.492 1.125 2.844a.32.32 0 0 0 .031.032c.004.002.028.03.032.031.052.011.077.023.094.031.002.002.029-.001.031 0 .001-.003-.003-.028 0-.031a.453.453 0 0 1 .031-.031c.002-.004.029-.024.031-.032v-.031c.044-.438-.08-2.739-.25-3.375a2.154 2.154 0 0 1-.062-.531c.003-.044.022-.113.031-.157.008-.034.018-.091.031-.124.004-.009.028-.024.031-.032.062-.115.153-.233.25-.312.181-.14.414-.233.626-.313.385-.164 1.035-1.556.75-1.531zM92 18.844c-.498.012-1.109.056-1.812.125-.931.09-4.523.931-5.157 1.406l.594.25c.002-.002.028.002.031 0 .004-.002.028-.029.032-.031.559-.219 3.733-.291 4.593-.375 1.805-.176 3.938-.188 3.938-.188l-.875-1.156s-.515-.051-1.344-.031zm-8.973 4.88c-.034.215-.294 1.363-.496 1.526-.004.003-.027.029-.031.031s-.027-.002-.031 0-.027.03-.031.031h-.032c-.434.074-2.678.052-3.468-.062.002.003-.003.029 0 .031.01.011.022.05.031.063.004.006.028.024.031.031.002.004-.001.028 0 .031.002.008.03.023.031.032v.124c.005.003.026.029.031.032.354.161 2.025.499 2.782.625.544.064 1.152-.025 1.594-.375.448-.359.684-1.538.781-2.093.134-.767-1.138-.378-1.192-.027zm-4.246 1.464c.002.001-.002.029 0 .031.01.002.021-.002.031 0-.002-.002.003-.03 0-.031-.004-.003-.026.001-.031 0zm.094.031c.011.007.02.022.031.031-.02-.003-.013-.028-.031-.031zm-8.469 30.562c-2.159 8.218-8.492 10.754-14.031 11.407-5.539.652-11.124-.904-13.094-1.532l-.343-.125-.282.25c-1.282 1.165-2.895 2.735-4.625 3.907-1.73 1.171-3.509 1.895-5.156 1.562l1 .875c2.154.435 3.015-.148 4.875-1.406 1.76-1.192 3.087-3.377 4.312-4.5 2.202.688 7.763 2.887 13.438 2.219 5.864-.691 11.943-3.869 14.219-12.532l-.313-.125zm-31.312 8.063c-.375.031-.85.112-1.406.25-.514.127-.764.171-.969.25-.034.014-.092.045-.125.062-.29.155-.647.469-1.75 1.313l-1.969 2c1.869-1.355 3.934-2.12 5.094-2.407 1.217-.3 1.906-1.156 1.906-1.156l.094-.312s-.327-.046-.875 0zm4.468 4.344a3.985 3.985 0 0 0-2.062 1.031c-1.003.948-1.785 1.302-1.344 4.375l.625 1.906c-.172-2.565.924-4.771 1.563-5.375.687-.65 1.406-1.75 1.406-1.75l-.062-.187c-.018.001-.076-.008-.126 0z" transform="translate(179.28 193.1)"/>
</svg>
